<?xml version="1.0" encoding="UTF-8"?>
<svg id="Capa_2" xmlns="http://www.w3.org/2000/svg" viewBox="0 0 108.42 59.81">
  <defs>
    <style>
      .cls-1 {
        stroke: #1d1d1b;
        stroke-miterlimit: 10;
      }
    </style>
  </defs>
  <g id="Capa_1-2" data-name="Capa_1">
    <g>
      <path class="cls-1" d="M47.8,37.27c-4.74-2.45-7.8-6.17-8.84-11.35-.99-4.94.15-9.45,3.36-13.34,5.98-7.25,16.86-7.86,23.58-1.16,3.89,3.87,5.41,8.65,4.51,14.05-.9,5.4-4.01,9.27-8.92,11.82.4.14.73.26,1.05.37,3.47,1.27,6.47,3.26,8.98,5.96,2.23,2.4,3.89,5.16,4.95,8.28.65,1.91,1,3.88,1.19,5.88.07.75-.45,1.45-1.13,1.53-.79.09-1.39-.37-1.52-1.19-.17-1.09-.32-2.19-.51-3.27-.23-1.31-.69-2.55-1.23-3.76-1.95-4.39-5.09-7.67-9.33-9.9-1.68-.88-3.46-1.5-5.32-1.87-1.58-.31-3.19-.46-4.81-.33-1.03.08-2.07.13-3.08.33-1.06.21-2.1.52-3.11.87-2.64.92-4.95,2.39-6.98,4.29-1.73,1.62-3.13,3.51-4.21,5.63-.87,1.71-1.5,3.51-1.82,5.4-.16.91-.26,1.83-.4,2.74-.11.73-.8,1.15-1.52,1.05-.62-.09-1.13-.76-1.08-1.42.17-2.25.6-4.45,1.39-6.57,1.26-3.38,3.19-6.32,5.82-8.78,2.46-2.31,5.28-4.02,8.5-5.08.14-.04.27-.11.46-.18ZM67.98,22.78c.04-7.31-5.92-13.33-13.25-13.36-7.43-.03-13.42,5.95-13.42,13.35,0,7.21,5.79,13.31,13.32,13.34,7.33.03,13.38-5.95,13.35-13.33Z"/>
      <path class="cls-1" d="M82.74,26.22c-4-2.06-6.57-5.2-7.44-9.57-.83-4.16.13-7.97,2.83-11.24,5.04-6.11,14.2-6.62,19.87-.98,3.28,3.26,4.56,7.29,3.8,11.84-.76,4.55-3.38,7.81-7.52,9.96.34.12.61.22.88.32,2.92,1.07,5.45,2.75,7.57,5.02,1.88,2.02,3.28,4.35,4.17,6.98.55,1.61.84,3.27,1,4.96.06.63-.38,1.22-.95,1.29-.67.08-1.17-.31-1.28-1.01-.15-.92-.27-1.84-.43-2.76-.2-1.1-.58-2.15-1.03-3.16-1.65-3.7-4.29-6.46-7.86-8.34-1.41-.74-2.92-1.26-4.48-1.57-1.33-.26-2.69-.39-4.05-.28-.87.07-1.74.11-2.59.27-.89.17-1.77.44-2.62.74-2.22.77-4.17,2.02-5.88,3.62-1.46,1.37-2.64,2.95-3.54,4.74-.73,1.44-1.26,2.96-1.54,4.55-.13.77-.22,1.54-.34,2.31-.1.62-.67.97-1.28.88-.52-.08-.96-.64-.91-1.19.14-1.9.51-3.75,1.17-5.53,1.06-2.85,2.69-5.32,4.9-7.4,2.07-1.94,4.45-3.39,7.16-4.28.11-.04.22-.09.38-.15ZM99.74,14.01c.04-6.16-4.99-11.23-11.17-11.25-6.26-.02-11.31,5.01-11.3,11.25,0,6.08,4.88,11.22,11.22,11.24,6.18.02,11.27-5.01,11.25-11.23Z"/>
      <path class="cls-1" d="M14.12,26.22c-4-2.06-6.57-5.2-7.44-9.57-.83-4.16.13-7.97,2.83-11.24,5.04-6.11,14.2-6.62,19.87-.98,3.28,3.26,4.56,7.29,3.8,11.84-.76,4.55-3.38,7.81-7.52,9.96.34.12.61.22.88.32,2.92,1.07,5.45,2.75,7.57,5.02,1.88,2.02,3.28,4.35,4.17,6.98.55,1.61.84,3.27,1,4.96.06.63-.38,1.22-.95,1.29-.67.08-1.17-.31-1.28-1.01-.15-.92-.27-1.84-.43-2.76-.2-1.1-.58-2.15-1.03-3.16-1.65-3.7-4.29-6.46-7.86-8.34-1.41-.74-2.92-1.26-4.48-1.57-1.33-.26-2.69-.39-4.05-.28-.87.07-1.74.11-2.59.27-.89.17-1.77.44-2.62.74-2.22.77-4.17,2.02-5.88,3.62-1.46,1.37-2.64,2.95-3.54,4.74-.73,1.44-1.26,2.96-1.54,4.55-.13.77-.22,1.54-.34,2.31-.1.62-.67.97-1.28.88-.52-.08-.96-.64-.91-1.19.14-1.9.51-3.75,1.17-5.53,1.06-2.85,2.69-5.32,4.9-7.4,2.07-1.94,4.45-3.39,7.16-4.28.11-.04.22-.09.38-.15ZM31.12,14.01c.04-6.16-4.99-11.23-11.17-11.25-6.26-.02-11.31,5.01-11.3,11.25,0,6.08,4.88,11.22,11.22,11.24,6.18.02,11.27-5.01,11.25-11.23Z"/>
    </g>
  </g>
</svg>