<?xml version="1.0" encoding="UTF-8"?>
<svg id="Capa_2" xmlns="http://www.w3.org/2000/svg" viewBox="0 0 71.41 89.86">
  <g id="Capa_1-2" data-name="Capa_1">
    <g>
      <path d="M36.58,0c.74.54.93,1.28.92,2.17-.03,2.68,0,5.36-.01,8.04,0,.89-.42,1.57-1.11,1.84-1.17.46-2.37-.32-2.44-1.61-.03-.56-.01-1.13-.01-1.7,0-2.19.02-4.38-.01-6.57-.01-.88.18-1.63.92-2.17h1.74Z"/>
      <path d="M34.46,89.86c-.44-.54-.55-1.15-.55-1.84.02-2.69,0-5.38,0-8.07,0-.92.42-1.6,1.13-1.87,1.13-.42,2.27.29,2.41,1.5.02.18.02.37.02.55,0,2.63-.01,5.26,0,7.89,0,.68-.11,1.3-.55,1.84h-2.48Z"/>
      <path d="M67.85,60.42c-.01-11.82,0-23.64-.01-35.46,0-1.79-1.07-2.88-2.87-2.94-.23,0-.46,0-.69,0-13.16,0-41.78,0-54.94-.01-.53,0-1.11-.11-1.57-.35-.63-.33-.86-.98-.75-1.69.12-.76.64-1.29,1.36-1.42.31-.06.63-.1.95-.1,13.27,0,41.99,0,55.26,0,1.68,0,3.23.37,4.55,1.5,1.31,1.12,2.04,2.53,2.21,4.23.03.29.03.58.03.87,0,13.32,0,26.64,0,39.97,0,1.58-.4,3.02-1.41,4.26-1.13,1.39-2.6,2.14-4.37,2.31-.35.03-.7.03-1.05.03-16.59,0-33.18,0-49.77,0-.41,0-.72.11-1.03.37-3.51,2.97-7.03,5.94-10.56,8.9-.31.26-.68.5-1.06.59-1.07.26-2.07-.54-2.13-1.65,0-.15,0-.31,0-.46C0,61.25,0,43.15,0,25.05c0-1.53.37-2.94,1.32-4.16,1.31-1.67,3.06-2.42,5.15-2.45,1.12-.02,2.23-.02,3.35,0,.73.01,1.38.21,1.79.9.61,1.03,0,2.47-1.18,2.58-1.26.12-2.53.06-3.8.11-.48.02-.99.06-1.43.23-.97.37-1.46,1.16-1.61,2.17-.04.26-.03.52-.03.78,0,16.63,0,33.26,0,49.89v.63l.12.05c1.02-.85,2.03-1.71,3.04-2.56,1.78-1.5,3.56-2.99,5.33-4.5.58-.5,1.2-.71,1.97-.7,16.9.01,33.79,0,50.69.01.69,0,1.34-.08,1.92-.48.97-.67,1.27-1.64,1.18-2.76l.02-4.37Z"/>
      <path d="M37.94,45.06c0-2.48,0-4.96,0-7.44,0-.76.17-1.45.91-1.82.32-.16.7-.28,1.04-.27,1.71.02,3.43.02,5.13.17,1.26.11,2.4.68,3.43,1.43,1.21.88,2.14,2.01,2.76,3.37.52,1.12.75,2.33.75,3.56,0,1.25-.03,2.51-.18,3.75-.15,1.19-.66,2.29-1.37,3.26-.81,1.11-1.81,2.01-3.06,2.64-1.27.64-2.61.92-4.02.93-1.1,0-2.2,0-3.3,0-1.39,0-2.08-.69-2.08-2.1,0-2.49,0-4.99,0-7.48ZM41.52,45.1c0,1.84,0,3.67,0,5.51,0,.36.1.49.47.47.63-.03,1.26,0,1.88-.03,1.95-.12,3.68-1.44,4.23-3.26.51-1.68.48-3.41.1-5.08-.38-1.67-1.49-2.82-3.15-3.32-.63-.19-1.32-.24-1.98-.29-.48-.04-1.14-.15-1.4.1-.25.25-.12.91-.13,1.4-.01,1.5,0,3,0,4.5Z"/>
      <path d="M33.44,52.54c.03,1.1-.5,1.81-1.26,2.04-.73.22-1.63-.09-1.97-.8-.35-.74-.61-1.53-.86-2.31-.41-1.28-.39-1.28-1.74-1.28-1.06,0-2.11,0-3.17,0-.31,0-.46.11-.56.41-.28.9-.58,1.8-.9,2.69-.26.72-.73,1.24-1.54,1.34-.73.08-1.32-.2-1.71-.84-.28-.45-.36-.94-.19-1.45.52-1.58,1.04-3.16,1.57-4.74,1.09-3.26,2.19-6.51,3.28-9.77.12-.35.23-.7.36-1.04.29-.76.96-1.25,1.7-1.26.73,0,1.4.44,1.67,1.21.55,1.52,1.05,3.06,1.57,4.59.98,2.91,1.96,5.81,2.93,8.72.31.92.6,1.85.8,2.49ZM26.51,43.09s-.07.02-.11.02c-.35,1.03-.69,2.05-1.04,3.07-.09.26-.06.41.26.41.55,0,1.1,0,1.65,0,.31,0,.38-.14.3-.41-.12-.36-.24-.73-.36-1.09-.23-.67-.46-1.35-.7-2.02Z"/>
      <path d="M56.96,5.18c.02.35-.25.79-.63,1.16-1.97,1.98-3.94,3.97-5.93,5.93-.98.97-2.25.83-2.91-.29-.32-.55-.32-1.14,0-1.69.14-.23.31-.45.51-.65,1.9-1.91,3.8-3.81,5.7-5.71.84-.84,1.66-.97,2.5-.41.51.34.74.83.76,1.65Z"/>
      <path d="M56.95,84.89c0,.98-.32,1.51-.94,1.84-.6.33-1.2.31-1.77-.08-.2-.14-.39-.29-.57-.46-1.9-1.9-3.8-3.8-5.7-5.71-.52-.52-.83-1.11-.66-1.89.25-1.1,1.54-1.71,2.52-1.14.25.14.48.33.68.53,1.92,1.91,3.82,3.82,5.73,5.74.4.4.71.84.7,1.17Z"/>
      <path d="M14.45,5.12c.02-.9.35-1.42.97-1.74.6-.32,1.21-.28,1.77.12.17.12.35.25.5.4,1.93,1.92,3.85,3.84,5.77,5.77.81.82.91,1.74.3,2.54-.54.7-1.51.88-2.25.41-.21-.13-.41-.28-.58-.45-1.94-1.93-3.87-3.86-5.8-5.8-.4-.4-.69-.86-.67-1.26Z"/>
      <path d="M14.45,85.08c-.03-.44.24-.89.61-1.26,1.98-2,3.96-3.99,5.97-5.96.97-.95,2.23-.8,2.88.29.34.57.33,1.16,0,1.73-.14.23-.32.45-.51.64-1.88,1.89-3.75,3.77-5.64,5.64-.25.24-.53.48-.83.63-1.14.54-2.45-.32-2.46-1.72Z"/>
      <path d="M17.17,21.98c-.98,0-1.79-.8-1.79-1.76,0-.94.81-1.74,1.76-1.76.95-.01,1.79.82,1.79,1.78,0,.95-.79,1.74-1.76,1.74Z"/>
    </g>
  </g>
</svg>