<?xml version="1.0" encoding="UTF-8"?>
<svg id="Capa_2" xmlns="http://www.w3.org/2000/svg" viewBox="0 0 108.14 55.63">
  <defs>
    <style>
      .cls-1 {
        stroke: #1d1d1b;
        stroke-miterlimit: 10;
        stroke-width: .5px;
      }
    </style>
  </defs>
  <g id="Capa_1-2" data-name="Capa_1">
    <path class="cls-1" d="M48.01,39.16c-6.2,4.15-12.31,8.24-18.43,12.33-1.57,1.05-2.52.58-2.68-1.32-.8-9.26-1.71-18.52-2.47-27.78-.04-.61-.32-.89-.83-1.15-7.46-3.83-14.91-7.69-22.37-11.53-1.56-.5-1.17-2.61.52-2.46,20.48-1.44,40.96-2.86,61.44-4.25,13.66-.35,28.83-3.08,42.4-2.72,1.88.05,2.94,2.19,1.87,3.75-11.99,17.42-27.04,33.79-39.82,50.91-1.18,3.39-16.79-14.17-19.63-15.78ZM39.44,28.2c9.08,8.26,17.99,16.36,26.96,24.51,13.03-16.46,25.97-32.82,38.92-49.18-21.91,8.2-43.82,16.4-65.88,24.66ZM5.96,9.31c6.15,3.69,12.91,6.67,19.28,10.11,5.19-.5,10.39-2.44,15.58-3.44,18.12-4.31,36.25-8.62,54.38-12.89L5.96,9.31ZM26.76,22.69c.74,7.76,1.4,15.53,2.11,23.29,2.65-4.1,5.95-17.88,9.63-19.96,17.09-6.36,34.14-12.83,51.25-19.12-20.8,4.42-41.45,9.92-62.22,14.64-.67.16-.85.45-.78,1.16ZM38.14,30.21l-7.49,17.72,15.57-10.39-8.08-7.33Z"/>
  </g>
</svg>