<?xml version="1.0" encoding="UTF-8"?>
<svg id="Capa_2" xmlns="http://www.w3.org/2000/svg" viewBox="0 0 92.22 78.87">
  <defs>
    <style>
      .cls-1 {
        fill: #1d1d1b;
      }
    </style>
  </defs>
  <g id="Capa_1-2" data-name="Capa_1">
    <g>
      <path class="cls-1" d="M5.77,28.14c8.91-7.07,18-13.87,27.41-20.26,2.4-1.63,4.84-3.53,7.82-3.88,3.32-.39,6.69,1.56,9.67,2.75,6.03,2.42,12.13,4.62,18.24,6.82,3.25,1.17,6.5,2.34,9.73,3.55,1.71.64,3.41,1.29,5.11,1.96.89.35,1.77.7,2.66,1.06.66.27,1.88.53,2.31,1.04l-.51-.88.09-.55c-.2.22-.4.43-.6.65-.3.32-.6.65-.9.97-.6.64-1.21,1.28-1.82,1.92-1.23,1.27-2.47,2.52-3.74,3.74-2.43,2.35-4.93,4.63-7.51,6.82-5.13,4.38-10.54,8.41-16.19,12.1-1.23.8-2.53,1.83-3.95,2.26-1.71.52-3.49-.29-5.08-.86-3.28-1.17-6.57-2.33-9.85-3.49-6.18-2.18-12.36-4.37-18.45-6.82-3.5-1.41-6.96-2.91-10.38-4.5-1.62-.75-3.32-1.44-4.84-2.38-.21-.13-.41-.26-.6-.43-.14-.12-.26-.25-.36-.39-.12.38-.13.48-.02.3.58-.52,1.15-1.02,1.76-1.5.85-.67.7-2.13,0-2.83-.84-.84-1.97-.67-2.83,0-1.15.9-2.44,1.84-2.84,3.33-.48,1.81.76,3.43,2.13,4.46s2.85,1.61,4.31,2.3c1.78.84,3.58,1.66,5.38,2.46,6.45,2.84,13.02,5.36,19.65,7.73,3.25,1.16,6.5,2.3,9.76,3.45,1.74.61,3.48,1.23,5.21,1.85,1.89.68,3.82,1.49,5.87,1.5,3.62.02,6.87-2.76,9.71-4.69,3.06-2.08,6.04-4.27,8.96-6.55,5.68-4.43,11.06-9.25,16.1-14.4,1.23-1.26,2.46-2.54,3.64-3.85s2.14-3.24.55-4.76c-1.22-1.16-3.27-1.62-4.79-2.22-1.87-.74-3.74-1.47-5.62-2.18-6.58-2.5-13.24-4.8-19.85-7.24-3.6-1.33-7.18-2.71-10.73-4.15s-7.18-2.95-11.19-2.08c-3.68.8-6.72,3.25-9.76,5.33-2.77,1.9-5.53,3.83-8.26,5.79-6.2,4.48-12.25,9.17-18.24,13.92-.85.67-.7,2.13,0,2.83.84.84,1.98.67,2.83,0Z"/>
      <path class="cls-1" d="M75.01,34.25c-.34,6.19-.67,12.39-.91,18.59-.04.92-.07,1.84-.11,2.76-.03.85-.36,2.37-.07,3.12-.08-.2.28-.46-.06,0-.09.12-.17.24-.25.36-.23.33.17-.2-.18.23-1.55,1.89-3.27,3.65-5.11,5.26-2.43,2.15-5.11,4.05-8.04,5.46-3.25,1.57-6.46,1.99-10.03,1.82-9.21-.44-18.37-3.14-26.62-7.21-.49-.24-1.28-.49-1.68-.87.36.35.18.55.28-.15.05-.38-.02-.8-.02-1.18-.02-1.19-.04-2.39-.05-3.58-.01-1.99,0-3.98.06-5.96.14-4.36.49-8.72.8-13.08.17-2.42-3.6-2.41-3.77,0-.3,4.15-.63,8.29-.78,12.45-.07,1.82-.09,3.64-.09,5.46,0,1.12.01,2.25.03,3.37.02,1.26-.13,2.69.15,3.92.52,2.3,3.85,3.24,5.75,4.09,2.25,1.01,4.55,1.93,6.88,2.73,4.76,1.64,9.66,2.78,14.65,3.39,4.16.51,8.49.82,12.55-.43,3.59-1.11,6.87-3.05,9.84-5.33,2.44-1.87,4.73-3.94,6.77-6.24.69-.77,1.36-1.57,1.96-2.42.64-.91.67-1.73.71-2.86.3-7.92.68-15.83,1.11-23.74.13-2.43-3.64-2.42-3.77,0h0Z"/>
      <path class="cls-1" d="M82.69,27.81c1.68,10.83-.12,21.9-.02,32.78.01,1.23.21,2.56.07,3.78-.13,1.1-.79,2.13-1.27,3.11-1.02,2.12-2.16,4.33-2.6,6.66-.23,1.23-.28,2.49.67,3.45.89.91,2.25,1.16,3.47,1.25s2.4-.05,3.59-.15c1.11-.1,2.46.05,3.53-.27,3.43-1.05,1.66-5,.57-7.13-1.33-2.59-3.15-4.97-4.14-7.72-.84-2.34-4.59-1.33-3.75,1.03.76,2.11,1.88,4.03,3.02,5.96.56.95,1.11,1.89,1.61,2.87.25.49,1.01,1.72.81,2.22l.5-.86c.21-.24-.91-.09-1.22-.07-.69.05-1.39.13-2.08.18-.74.06-2.69.43-3.29-.19l.5.86c-.23-.61.26-1.64.46-2.23.28-.81.62-1.6.98-2.37.78-1.68,1.88-3.39,2.33-5.2.5-2.02.11-4.35.11-6.42s.08-4.3.16-6.45c.35-8.7,1.07-17.46-.27-26.11-.16-1.04-1.46-1.61-2.39-1.36-1.11.3-1.52,1.35-1.36,2.39h0Z"/>
    </g>
  </g>
</svg>