<?xml version="1.0" encoding="UTF-8"?>
<svg id="Capa_2" xmlns="http://www.w3.org/2000/svg" viewBox="0 0 72.96 63.9">
  <defs>
    <style>
      .cls-1 {
        stroke: #1d1d1b;
        stroke-miterlimit: 10;
      }
    </style>
  </defs>
  <g id="Capa_1-2" data-name="Capa_1">
    <g>
      <path d="M31.77,63.9c-9.32,0-18.64,0-27.96,0-.83,0-1.61-.16-2.31-.64-1.02-.69-1.42-1.69-1.49-2.87,0-.13,0-.25,0-.38C0,44.25,0,28.48,0,12.72c0-1.09.18-2.13.86-3.02.89-1.17,2.1-1.68,3.55-1.68,1.12,0,2.25-.01,3.37,0,.39,0,.54-.11.54-.53-.02-1.42-.01-2.84,0-4.25C8.32,1.2,9.52,0,11.58,0,23.93,0,36.28,0,48.63,0c1.31,0,2.39.44,2.97,1.67.23.49.33,1.08.34,1.62.03,3.99.01,7.97.02,11.96q0,.67.68.67c1.02,0,2.05-.01,3.07,0,2.62.04,4.37,1.81,4.39,4.43.01,2.02,0,4.04,0,6.06,0,.56,0,.56.56.56,2.93,0,5.87,0,8.8,0,1.02,0,1.94.26,2.67,1.04.64.69.91,1.5.81,2.43-.03.31-.1.61-.19.9-2.8,9.52-5.6,19.04-8.41,28.55-.26.89-.61,1.74-1.21,2.48-.85,1.05-1.96,1.51-3.28,1.51-2.67,0-5.33,0-8,0-6.69,0-13.39,0-20.08,0ZM33.54,61.41c8.56,0,17.12,0,25.69,0,.24,0,.48,0,.72,0,.51,0,.99-.14,1.24-.58.33-.58.65-1.19.84-1.82,1.25-4.2,2.47-8.4,3.7-12.6,1.54-5.24,3.08-10.48,4.61-15.72.26-.89.02-1.21-.89-1.22-.17,0-.34,0-.51,0-12.69,0-25.38,0-38.07,0-4.48,0-8.96,0-13.43,0-1.25,0-1.87.47-2.21,1.65-1.56,5.43-3.12,10.87-4.67,16.31-1.28,4.49-2.57,8.99-3.85,13.48-.13.47-.11.5.38.51.13,0,.25,0,.38,0,8.69,0,17.38,0,26.07,0ZM10.79,36.95c.05.01.1.02.15.03.05-.12.1-.24.13-.37.59-2.05,1.16-4.1,1.76-6.15.34-1.17.93-2.15,2.01-2.8.87-.53,1.83-.68,2.83-.68,10.37,0,20.74,0,31.12,0q.69,0,.69-.7c0-7.61,0-15.21,0-22.82,0-.87-.1-.97-.96-.97-12.27,0-24.53,0-36.8,0-.83,0-.91.09-.91.92,0,11.03,0,22.06,0,33.1,0,.15,0,.3,0,.44ZM2.49,36.24c0,7.92,0,15.83,0,23.75,0,.25,0,.51.07.75.1.37.36.6.75.64.37.04.58-.2.71-.49.15-.31.29-.64.38-.98,1.26-4.4,2.52-8.8,3.76-13.2.09-.32.13-.66.13-.99,0-11.51,0-23.02,0-34.53,0-.08,0-.17,0-.25.03-.3-.1-.43-.41-.43-1.22,0-2.44,0-3.66,0-.53,0-.97.21-1.34.61-.4.44-.41.96-.41,1.5,0,7.87,0,15.75,0,23.62ZM51.95,22.67c0,1.26.01,2.53,0,3.79,0,.41.14.53.54.53,1.54-.02,3.09-.02,4.63,0,.4,0,.5-.14.5-.51-.01-2.03,0-4.07,0-6.1,0-1.25-.67-1.94-1.91-1.95-1.08-.01-2.16,0-3.24-.01-.39,0-.51.14-.51.52.02,1.25,0,2.5,0,3.75Z"/>
      <path class="cls-1" d="M27.86,18.33c-1.98-1.02-3.25-2.57-3.68-4.73-.41-2.06.06-3.94,1.4-5.56,2.49-3.02,7.02-3.28,9.83-.49,1.62,1.61,2.26,3.6,1.88,5.85-.38,2.25-1.67,3.86-3.72,4.92.17.06.3.11.44.16,1.45.53,2.7,1.36,3.74,2.48.93,1,1.62,2.15,2.06,3.45.27.8.42,1.62.5,2.45.03.31-.19.6-.47.64-.33.04-.58-.16-.63-.5-.07-.45-.13-.91-.21-1.36-.1-.54-.29-1.06-.51-1.57-.81-1.83-2.12-3.19-3.89-4.13-.7-.37-1.44-.62-2.22-.78-.66-.13-1.33-.19-2-.14-.43.03-.86.05-1.28.14-.44.09-.87.22-1.3.36-1.1.38-2.06,1-2.91,1.79-.72.68-1.31,1.46-1.75,2.35-.36.71-.62,1.46-.76,2.25-.07.38-.11.76-.17,1.14-.05.31-.33.48-.63.44-.26-.04-.47-.32-.45-.59.07-.94.25-1.85.58-2.74.52-1.41,1.33-2.63,2.42-3.66,1.02-.96,2.2-1.68,3.54-2.12.06-.02.11-.04.19-.08ZM36.27,12.29c.02-3.05-2.47-5.56-5.52-5.57-3.09-.01-5.59,2.48-5.59,5.56,0,3.01,2.41,5.55,5.55,5.56,3.06.01,5.57-2.48,5.56-5.56Z"/>
    </g>
  </g>
</svg>