<?xml version="1.0" encoding="UTF-8"?>
<svg id="Capa_2" xmlns="http://www.w3.org/2000/svg" viewBox="0 0 102.43 73.02">
  <defs>
    <style>
      .cls-1 {
        fill: #1d1d1b;
      }

      .cls-2 {
        fill: none;
        stroke: #1d1d1b;
        stroke-miterlimit: 10;
        stroke-width: 2.71px;
      }
    </style>
  </defs>
  <g id="Capa_1-2" data-name="Capa_1">
    <g>
      <circle class="cls-2" cx="67.42" cy="35.01" r="8.12"/>
      <circle class="cls-2" cx="67.42" cy="35.01" r="15.89"/>
      <circle class="cls-2" cx="67.42" cy="35.01" r="24.01"/>
      <circle class="cls-2" cx="67.42" cy="35.01" r="33.66"/>
      <g>
        <path class="cls-1" d="M66.09,33.82c-12.46,6.76-25.28,12.86-38.41,18.21-.85.35-1.43,1.12-1.18,2.08.21.8,1.24,1.53,2.08,1.18,13.4-5.47,26.5-11.65,39.22-18.55,1.91-1.04.21-3.96-1.71-2.92h0Z"/>
        <path class="cls-1" d="M26.65,52.46c-2.95,1.15-5.9,2.3-8.86,3.46-.82.32-1.48,1.15-1.18,2.08.26.8,1.2,1.53,2.08,1.18,2.95-1.15,5.9-2.3,8.86-3.46.82-.32,1.48-1.15,1.18-2.08-.26-.8-1.2-1.53-2.08-1.18h0Z"/>
        <path class="cls-1" d="M18.29,50.15c4.47-.34,8.78.98,12.99,2.35.05.02.38.12.38.13-.48.56.06-1.27-.27-.29-.17.52-.31,1.05-.47,1.57-.33,1.09-.66,2.18-.99,3.27-.67,2.23-1.35,4.46-2.02,6.69-.63,2.09,2.63,2.98,3.26.9.78-2.58,1.56-5.16,2.34-7.73.38-1.26.84-2.52,1.15-3.81s.06-2.71-1.19-3.47c-1.01-.61-2.32-.87-3.45-1.21-1.26-.39-2.53-.75-3.81-1.04-2.59-.6-5.25-.95-7.91-.74-.91.07-1.69.73-1.69,1.69,0,.86.78,1.76,1.69,1.69h0Z"/>
        <path class="cls-1" d="M9.81,53.68c4.47-.34,8.78.98,12.99,2.35.05.02.38.12.38.13-.48.56.06-1.27-.27-.29-.17.52-.31,1.05-.47,1.57-.33,1.09-.66,2.18-.99,3.27-.67,2.23-1.35,4.46-2.02,6.69-.63,2.09,2.63,2.98,3.26.9.78-2.58,1.56-5.16,2.34-7.73.38-1.26.84-2.52,1.15-3.81s.06-2.71-1.19-3.47c-1.01-.61-2.32-.87-3.45-1.21-1.26-.39-2.53-.75-3.81-1.04-2.59-.6-5.25-.95-7.91-.74-.91.07-1.69.73-1.69,1.69,0,.86.78,1.76,1.69,1.69h0Z"/>
        <path class="cls-1" d="M1.69,57.21c4.47-.34,8.78.98,12.99,2.35.05.02.38.12.38.13-.48.56.06-1.27-.27-.29-.17.52-.31,1.05-.47,1.57-.33,1.09-.66,2.18-.99,3.27-.67,2.23-1.35,4.46-2.02,6.69-.63,2.09,2.63,2.98,3.26.9.78-2.58,1.56-5.16,2.34-7.73.38-1.26.84-2.52,1.15-3.81s.06-2.71-1.19-3.47c-1.01-.61-2.32-.87-3.45-1.21-1.26-.39-2.53-.75-3.81-1.04-2.59-.6-5.25-.95-7.91-.74-.91.07-1.69.73-1.69,1.69,0,.86.78,1.76,1.69,1.69h0Z"/>
      </g>
      <path class="cls-1" d="M64.36,34.52c.44-.02.89-.04,1.33-.03.19,0,.37.01.56.02.07,0,.15.01.22.02.4.04-.32-.06-.1-.02.14.02.28.05.42.08.06.02.33.06.36.11.02.04-.43-.21-.26-.11.02.01.05.02.07.04.04.02.08.05.12.07.07.04.25.18-.02-.03s-.08-.06-.02,0c.02.02.08.1.1.11-.05,0-.27-.41-.15-.19.02.04.05.09.07.13.15.25-.11-.32-.08-.19.02.1.06.19.08.29.01.05.02.11.03.17,0,0-.05-.49-.03-.18.02.27.02.55,0,.83,0,.15-.02.3-.04.45-.02.17-.11.83-.02.2-.14,1-.31,1.99-.47,2.99-.07.44-.07.83.16,1.23.19.33.57.65.96.73.76.17,1.83-.23,1.97-1.12.15-.97.32-1.94.46-2.92.11-.78.24-1.58.18-2.37-.06-.86-.29-1.64-.87-2.3-.48-.55-1.2-.89-1.91-1.04-1.03-.22-2.09-.21-3.13-.16-.83.04-1.64.71-1.6,1.6.04.83.7,1.64,1.6,1.6h0Z"/>
    </g>
  </g>
</svg>