<?xml version="1.0" encoding="UTF-8"?>
<svg id="Capa_2" xmlns="http://www.w3.org/2000/svg" viewBox="0 0 89.57 88.81">
  <defs>
    <style>
      .cls-1 {
        fill: #1d1d1b;
      }
    </style>
  </defs>
  <g id="Capa_1-2" data-name="Capa_1">
    <g>
      <path class="cls-1" d="M37.84,41.98c3.69-8,7.35-16.07,11.63-23.77l-3.43-.45c1.02,4.62,2.48,9.12,3.84,13.64.67,2.24,1.32,4.49,1.87,6.76.4,1.67.34,4.39,2.01,5.33,1.76.99,4.4-.37,6.16-.9,2.29-.69,4.57-1.4,6.86-2.08,4.49-1.32,9.05-2.54,13.71-3.04l-1.62-2.82c-.43.59-.75.99-1.35,1.71-.66.8-1.34,1.58-2.03,2.36-1.61,1.83-3.27,3.62-4.94,5.39-3.14,3.34-6.34,6.63-9.57,9.89-1.26,1.27-3.57,2.79-3.31,4.77.49,3.82.93,7.65,1.33,11.48.57,5.45,1.19,10.97,1.14,16.46l2.82-1.62c-7.47-4.49-12.21-12.44-17.37-19.21-.74-.97-1.97-1.28-2.94-.38-6.83,6.32-12.5,13.77-19.33,20.09l2.94,2.27c3.83-8.99,4.69-18.97,8.51-27.95.32-.75.37-1.66-.29-2.27-7.14-6.6-15.84-11.14-22.97-17.74l-.83,3.13c4.88-.72,10.46-.57,15.57-.48,3.32.06,6.64.16,9.96.34,2.41.13,2.4-3.62,0-3.75-3.42-.18-6.84-.29-10.26-.34-5.41-.09-10.9-.18-16.26.62-1.41.21-1.78,2.25-.83,3.13,7.14,6.6,15.84,11.14,22.97,17.74l-.29-2.27c-3.83,8.99-4.69,18.97-8.51,27.95-.8,1.88,1.28,3.82,2.94,2.27,6.83-6.32,12.5-13.77,19.33-20.09l-2.94-.38c5.56,7.31,10.65,15.71,18.71,20.56,1.23.74,2.81-.22,2.82-1.62.06-5.79-.62-11.61-1.23-17.36-.4-3.73-.83-7.46-1.31-11.18l-.55,1.33c5.72-5.68,11.37-11.44,16.74-17.45,1.59-1.78,3.16-3.59,4.57-5.52.8-1.09-.26-2.97-1.62-2.82-4.46.48-8.81,1.49-13.11,2.71-2.14.61-4.27,1.27-6.4,1.92-1.07.33-2.13.65-3.2.97-.87.26-2.03.84-2.94.75l.95.26c.31.64.41.72.29.25-.03-.24-.08-.48-.13-.72-.08-.45-.18-.89-.28-1.33-.23-1.05-.49-2.09-.76-3.13-.54-2.05-1.14-4.08-1.76-6.11-1.26-4.14-2.56-8.27-3.5-12.51-.35-1.58-2.66-1.82-3.43-.45-4.28,7.7-7.95,15.77-11.63,23.77-1,2.18,2.23,4.08,3.24,1.89Z"/>
      <path class="cls-1" d="M65.45,17.77c.07-.17.13-.34.2-.5.04-.1.25-.67.07-.18.11-.3.25-.58.38-.87.29-.64.6-1.27.93-1.88.64-1.22,1.35-2.4,2.13-3.54.55-.81.18-2.11-.67-2.57-.95-.5-1.98-.2-2.57.67-1.66,2.46-3.01,5.11-4.09,7.87-.17.43-.03,1.07.19,1.44s.67.76,1.12.86c1.08.25,1.92-.33,2.31-1.31h0Z"/>
      <path class="cls-1" d="M83.18,28.29l5.47-3.74c.41-.28.73-.63.86-1.12.12-.45.07-1.05-.19-1.44-.52-.8-1.7-1.26-2.57-.67l-5.47,3.74c-.41.28-.73.63-.86,1.12-.12.45-.07,1.05.19,1.44.52.8,1.7,1.26,2.57.67h0Z"/>
      <path class="cls-1" d="M28.97,18.1c-2.14-2.95-4.42-5.8-6.83-8.52-.65-.74-2-.72-2.65,0-.72.79-.7,1.87,0,2.65,1.14,1.28,2.25,2.6,3.32,3.93.26.32.51.64.77.96.13.16.25.32.38.48.14.18-.18-.24.04.05.06.08.12.16.19.24.53.69,1.05,1.39,1.56,2.1.3.41.62.72,1.12.86.45.12,1.05.07,1.44-.19.78-.51,1.29-1.72.67-2.57h0Z"/>
      <path class="cls-1" d="M50.12,7.89c0-2.01-.12-4.02-.38-6.01-.07-.52-.16-.94-.55-1.33-.33-.33-.86-.57-1.33-.55s-.99.18-1.33.55c-.31.34-.61.85-.55,1.33.26,1.99.39,4,.38,6.01,0,.98.87,1.92,1.88,1.88s1.87-.82,1.88-1.88h0Z"/>
      <path class="cls-1" d="M13.21,28.24l-11.33-1.17c-.98-.1-1.92.93-1.88,1.88.05,1.1.83,1.77,1.88,1.88l11.33,1.17c.98.1,1.92-.93,1.88-1.88-.05-1.1-.83-1.77-1.88-1.88h0Z"/>
    </g>
  </g>
</svg>