<?xml version="1.0" encoding="UTF-8"?>
<svg id="Capa_2" xmlns="http://www.w3.org/2000/svg" viewBox="0 0 83.06 83.09">
  <defs>
    <style>
      .cls-1 {
        stroke-width: .41px;
      }

      .cls-1, .cls-2 {
        stroke: #1d1d1b;
        stroke-miterlimit: 10;
      }

      .cls-2 {
        stroke-width: .45px;
      }
    </style>
  </defs>
  <g id="Capa_1-2" data-name="Capa_1">
    <g>
      <path class="cls-2" d="M50.73,44.69c3.65,3.66,6.98,7.6,11.54,9.94,6.32,6.32,12.65,12.63,18.96,18.97,3.1,2.79,1.45,8.45-2.68,9.14-4.45.96-6.89-3.8-9.82-6.26-4.69-4.69-9.39-9.39-14.08-14.08-1.17-.96-1.36-2.37-1.96-3.63-2.83-2.36-5.33-6.29-8.36-7.86C28.8,62.58,4.05,53.05.85,33.78-2.59,18.33,8.65,2.51,24.34.6c23.91-4,40.85,25.09,26.39,44.09ZM53.63,28.17c-.37-33.09-50.05-33.9-50.99-.17,0,33.43,50.54,34.1,50.99.17ZM58.35,55.3c-2.54-.11-4.2,3.36-2.16,5.19,6.28,6.28,12.56,12.56,18.84,18.83,2.59,3.34,7.65-1.15,4.62-4.08-5.47-5.45-10.94-10.9-16.41-16.35-1.56-1.26-2.65-3.56-4.89-3.59ZM53.45,56.04c.59-1.13,1.47-1.98,2.57-2.53-2.3-2.3-4.59-4.59-6.82-6.82-.82.83-1.69,1.72-2.53,2.58,2.19,2.19,4.46,4.46,6.78,6.77Z"/>
      <path class="cls-1" d="M28.21,48.49c-26.56-.41-26.63-40.13,0-40.49,27.07.58,26.26,40.22,0,40.49ZM10.06,28.23c.42,23.82,35.88,23.82,36.27,0-.32-23.67-35.79-24.09-36.27,0Z"/>
    </g>
  </g>
</svg>