<?xml version="1.0" encoding="UTF-8"?>
<svg id="Capa_2" data-name="Capa 2" xmlns="http://www.w3.org/2000/svg" viewBox="0 0 71.36 69.14">
  <g id="Capa_1-2" data-name="Capa 1">
    <g>
      <path d="M48.67,20.58c-3.12-6.91-6.79-13.57-11.25-19.7-.61-.84-1.95-1.29-2.75-.35-5.13,6-8.71,12.81-12.42,19.72l1.51-.87c-7.61.11-15.11,1.55-22.51,3.2-1.18.26-1.51,1.61-1.05,2.57,2.03,4.17,4.49,8.05,7.29,11.74,1.2,1.57,2.38,3.18,3.7,4.65,1.15,1.28,2.39,2.49,3.47,3.83l-.45-1.7c-1.79,7.72-3.17,15.61-3.36,23.55-.03,1.19,1.14,1.92,2.22,1.69,4.45-.96,8.73-2.39,12.91-4.18,1.8-.77,3.64-1.51,5.37-2.45,1.52-.82,2.97-1.77,4.53-2.5h-1.77c7.33,3.65,14.88,7.22,22.83,9.32,1.12.29,2.19-.55,2.22-1.69.09-4.47-.28-8.91-1.03-13.31-.33-1.93-.63-3.89-1.11-5.79-.42-1.67-1-3.31-1.35-5l-.45,1.7c5.65-5.78,11.51-11.54,15.9-18.38.64-1.01-.03-2.22-1.05-2.57-7.43-2.57-15.15-3.39-22.91-4.34-.95-.12-1.74.89-1.75,1.75-.01,1.04.82,1.64,1.75,1.75,7.45.91,14.84,1.75,21.98,4.21l-1.05-2.57c-2.19,3.42-4.8,6.53-7.53,9.52-1.4,1.53-2.83,3.03-4.27,4.52-.65.67-1.3,1.33-1.95,2s-1.61,1.35-1.96,2.2c-.57,1.35.59,3.73.97,5.06.53,1.88.86,3.8,1.21,5.72.8,4.48,1.2,8.98,1.1,13.54l2.22-1.69c-3.97-1.05-7.83-2.49-11.6-4.1-2-.86-3.99-1.76-5.95-2.7-.88-.42-1.76-.84-2.64-1.27-.78-.38-1.8-1.13-2.68-1.13-.76,0-1.62.59-2.27.95-.75.41-1.48.85-2.22,1.27-1.75,1-3.59,1.79-5.43,2.59-4.18,1.82-8.48,3.24-12.93,4.2l2.22,1.69c.1-4.28.57-8.54,1.26-12.76.35-2.13.75-4.25,1.2-6.36.2-.95.41-1.9.63-2.85.26-1.14.2-1.75-.56-2.66-1.01-1.22-2.15-2.34-3.21-3.51-1.28-1.42-2.43-2.97-3.58-4.5-2.63-3.51-4.94-7.23-6.87-11.18l-1.05,2.57c7.11-1.59,14.27-2.97,21.58-3.07.6,0,1.22-.32,1.51-.87,3.56-6.63,6.95-13.26,11.87-19.01l-2.75-.35c4.46,6.13,8.13,12.79,11.25,19.7.92,2.05,3.94.27,3.02-1.77Z"/>
      <path d="M32.04,36.04c-.38,2.56-.72,5.18-.6,7.78.07,1.38.25,2.76.86,4.01s1.94,2.2,3.41,2.15c2.03-.07,3.76-1.58,5.14-2.93.78-.76.82-2.18,0-2.94s-2.11-.82-2.94,0c-.32.31-.64.62-.98.9-.13.11-.66.48-.07.07-.15.11-.3.22-.46.32-.25.16-.5.29-.76.43-.22.12.3-.14.31-.13,0,0-.17.06-.18.07-.11.04-.23.05-.34.09-.22.07.68-.02.24-.04-.05,0-.1,0-.15,0-.28.02.63.13.36.05-.07-.02-.15-.04-.22-.06-.25-.06.52.27.35.15-.04-.03-.09-.05-.14-.08-.3-.19.45.42.21.16-.06-.06-.12-.13-.18-.19.14.13.34.49.14.16-.06-.09-.1-.19-.15-.28-.19-.34.2.57.08.18-.03-.1-.07-.19-.1-.28-.08-.25-.13-.5-.18-.76-.02-.11-.04-.23-.06-.34-.05-.33.07.6.04.27,0-.05-.01-.1-.02-.15-.03-.3-.05-.61-.07-.91-.05-1.19,0-2.38.1-3.56.05-.64.12-1.27.2-1.9.02-.14.04-.28.05-.43,0-.07.02-.14.03-.21.04-.33-.08.61-.04.29.04-.26.07-.52.11-.78.08-.58.1-1.08-.21-1.6-.25-.43-.75-.84-1.24-.96-.99-.22-2.39.3-2.56,1.45h0Z"/>
      <path d="M34.32,30.54c3.57,0,3.57-5.54,0-5.54s-3.57,5.54,0,5.54h0Z"/>
    </g>
  </g>
</svg>