<?xml version="1.0" encoding="UTF-8"?>
<svg id="Capa_2" data-name="Capa 2" xmlns="http://www.w3.org/2000/svg" viewBox="0 0 28.28 29.21">
  <g id="Capa_1-2" data-name="Capa 1">
    <path d="M24.05,28.44c-6.34-6.73-12.67-13.46-19.01-20.19.13,4.6.59,9.19.92,13.77.1,1.34-1.22,2.5-2.5,2.5-1.42,0-2.4-1.16-2.5-2.5C.5,15.53-.21,9.04.06,2.53.11,1.17,1.16.06,2.56.04,5.69,0,8.83-.06,11.97.17c1.8.13,3.61.32,5.4.58,1.77.26,3.51.74,5.3.88,1.34.11,2.5,1.05,2.5,2.5,0,1.27-1.16,2.62-2.5,2.5-3.59-.3-7.09-1.19-10.7-1.46-1.03-.08-2.05-.13-3.08-.14,6.24,6.62,12.47,13.25,18.71,19.87,2.21,2.35-1.33,5.88-3.54,3.54Z"/>
  </g>
</svg>