<?xml version="1.0" encoding="UTF-8"?>
<svg id="Capa_2" data-name="Capa 2" xmlns="http://www.w3.org/2000/svg" viewBox="0 0 31.17 38.41">
  <g id="Capa_1-2" data-name="Capa 1">
    <path d="M18.68,2.42c-.28,9.24-.56,18.48-.84,27.72,3.16-3.35,6.08-6.91,9.09-10.39.88-1.02,2.63-.9,3.53,0,1,1.01.88,2.52,0,3.54-4.25,4.91-8.34,10-13.13,14.41-1,.93-2.53.97-3.53,0-2.25-2.19-4.51-4.37-6.56-6.75-1.18-1.37-2.33-2.78-3.41-4.23-1.07-1.44-1.96-3-3.12-4.37-.87-1.03-1.02-2.51,0-3.53.9-.9,2.67-1.03,3.54,0,2.32,2.75,4.17,5.85,6.53,8.6.67.78,1.36,1.54,2.08,2.28.27-9.09.55-18.19.82-27.28.1-3.22,5.1-3.22,5,0Z"/>
  </g>
</svg>