<?xml version="1.0" encoding="UTF-8"?>
<svg id="Capa_2" data-name="Capa 2" xmlns="http://www.w3.org/2000/svg" viewBox="0 0 29.21 28.28">
  <g id="Capa_1-2" data-name="Capa 1">
    <path d="M.77,24.05c6.73-6.34,13.46-12.67,20.19-19.01-4.6.13-9.19.59-13.77.92-1.34.1-2.5-1.22-2.5-2.5,0-1.42,1.16-2.4,2.5-2.5C13.68.5,20.17-.21,26.67.06c1.36.05,2.47,1.1,2.5,2.5.04,3.14.1,6.28-.13,9.41-.13,1.8-.32,3.61-.58,5.4-.26,1.77-.74,3.51-.88,5.3-.11,1.34-1.05,2.5-2.5,2.5-1.27,0-2.62-1.16-2.5-2.5.3-3.59,1.19-7.09,1.46-10.7.08-1.03.13-2.05.14-3.08-6.62,6.24-13.25,12.47-19.87,18.71-2.35,2.21-5.88-1.33-3.54-3.54Z"/>
  </g>
</svg>