<?xml version="1.0" encoding="UTF-8"?>
<svg id="Capa_2" data-name="Capa 2" xmlns="http://www.w3.org/2000/svg" viewBox="0 0 28.28 29.21">
  <g id="Capa_1-2" data-name="Capa 1">
    <path d="M4.23.77c6.34,6.73,12.67,13.46,19.01,20.19-.13-4.6-.59-9.19-.92-13.77-.1-1.34,1.22-2.5,2.5-2.5,1.42,0,2.4,1.16,2.5,2.5.47,6.48,1.17,12.97.91,19.47-.05,1.36-1.1,2.47-2.5,2.5-3.14.04-6.28.1-9.41-.13-1.8-.13-3.61-.32-5.4-.58-1.77-.26-3.51-.74-5.3-.88-1.34-.11-2.5-1.05-2.5-2.5,0-1.27,1.16-2.62,2.5-2.5,3.59.3,7.09,1.19,10.7,1.46,1.03.08,2.05.13,3.08.14C13.17,17.56,6.93,10.93.7,4.31-1.51,1.96,2.03-1.58,4.23.77Z"/>
  </g>
</svg>