<?xml version="1.0" encoding="UTF-8"?>
<svg id="Capa_2" data-name="Capa 2" xmlns="http://www.w3.org/2000/svg" viewBox="0 0 38.41 31.17">
  <g id="Capa_1-2" data-name="Capa 1">
    <path d="M2.42,12.49c9.24.28,18.48.56,27.72.84-3.35-3.16-6.91-6.08-10.39-9.09-1.02-.88-.9-2.63,0-3.53,1.01-1,2.52-.88,3.54,0,4.91,4.25,10,8.34,14.41,13.13.93,1,.97,2.53,0,3.53-2.19,2.25-4.37,4.51-6.75,6.56-1.37,1.18-2.78,2.33-4.23,3.41-1.44,1.07-3,1.96-4.37,3.12-1.03.87-2.51,1.02-3.53,0-.9-.9-1.03-2.67,0-3.54,2.75-2.32,5.85-4.17,8.6-6.53.78-.67,1.54-1.36,2.28-2.08-9.09-.27-18.19-.55-27.28-.82-3.22-.1-3.22-5.1,0-5Z"/>
  </g>
</svg>