<?xml version="1.0" encoding="UTF-8"?>
<svg id="Capa_2" data-name="Capa 2" xmlns="http://www.w3.org/2000/svg" viewBox="0 0 68.03 59.2">
  <g id="Capa_1-2" data-name="Capa 1">
    <g>
      <path d="M64.32,13.93l.11.02v-.02h-.11ZM64.32,13.93l.11.02v-.02h-.11ZM64.32,13.93l.11.02v-.02h-.11ZM64.32,13.93l.11.02v-.02h-.11ZM64.32,13.93l.11.02v-.02h-.11ZM64.32,13.93l.11.02v-.02h-.11ZM64.32,13.93l.11.02v-.02h-.11ZM64.32,13.93l.11.02v-.02h-.11ZM67.8,5.96c0-.14.01-.27,0-.4-.29-2.95-2.66-5.21-6.07-5.55-.13,0-.27,0-.4,0L5.93.08c-.36,0-.73.05-1.07.14C2.28.97.55,2.59.06,4.97c-.04.17-.05.34-.05.51v48.07c-.01.11,0,.22.01.34.38,2.83,2.83,4.96,6.07,5.3.13,0,.26.01.39.01h54.8c.17,0,.34-.01.5-.03,3.78-.49,5.95-2.66,6.04-5.99.49-18.11-.02-31.13-.02-47.22ZM64.43,13.95v40.29c0,.71-.66,2.02-3.2,2.02H6.3c-.61-.03-1.12-.24-1.56-.56-.74-.53-1.12-1.35-1.13-2.19l-.24-47.76c-.05-1.37,1.4-2.68,2.93-2.8l23.67.04s-.01-.02-.01-.03h32.17c1.98,0,2.3,1.31,2.3,2l.04,8.99h-.04ZM64.32,13.93l.11.02v-.02h-.11ZM64.32,13.93l.11.02v-.02h-.11ZM64.32,13.93l.11.02v-.02h-.11ZM64.32,13.93l.11.02v-.02h-.11ZM64.32,13.93l.11.02v-.02h-.11ZM64.32,13.93l.11.02v-.02h-.11ZM64.32,13.93l.11.02v-.02h-.11Z"/>
      <g>
        <g>
          <g>
            <path d="M36.82,16.92h.05s0,0,0,0h-.05ZM36.82,16.92h.05s0,0,0,0h-.05ZM36.82,16.92h.05s0,0,0,0h-.05ZM36.82,16.92h.05s0,0,0,0h-.05ZM36.82,16.92h.05s0,0,0,0h-.05ZM36.82,16.92h.05s0,0,0,0h-.05ZM36.82,16.92h.05s0,0,0,0h-.05Z"/>
            <polygon points="36.87 16.92 36.87 16.93 36.82 16.92 36.87 16.92"/>
          </g>
          <g>
            <path d="M36.82,16.92h.05s0,0,0,0h-.05ZM36.82,16.92h.05s0,0,0,0h-.05ZM36.82,16.92h.05s0,0,0,0h-.05Z"/>
            <polygon points="36.87 16.92 36.87 16.93 36.82 16.92 36.87 16.92"/>
          </g>
          <g>
            <path d="M36.82,16.92h.05s0,0,0,0h-.05ZM36.82,16.92h.05s0,0,0,0h-.05ZM36.82,16.92h.05s0,0,0,0h-.05Z"/>
            <path d="M39.35,20.4v-.18c-.03-2.19-.06-4.39-.06-6.75v-.5h-.04c-.28-1.59-1.63-2.75-3.4-2.92-.11-.02-.22-.02-.34-.02l-24.19.04c-.24,0-.5.03-.76.1-1.47.41-2.47,1.4-2.72,2.66-.05.16-.06.32-.06.43v20.77c0,.07,0,.15.01.25.23,1.63,1.64,2.86,3.5,3.05.09.01.18.01.26.01h23.95c.11,0,.23-.01.35-.02,2.1-.27,3.4-1.55,3.45-3.43.13-5.11.09-9.18.05-13.49ZM36.87,16.92h0s-.05,0-.05,0h.05ZM35.95,34.24s-.1.09-.48.09H11.49s-.04,0-.11-.05c-.08-.06-.13-.16-.13-.27l-.11-20.65c0-.09.2-.31.33-.32h24.39s.05.01.07-.01v.02l.02,21.19Z"/>
          </g>
        </g>
        <path d="M60.05,24.3c0,1-.77,1.81-1.8,1.86-1.19.07-2.38.09-3.58.09s-2.34-.02-3.5-.04c-1.32-.03-2.65-.05-3.98-.04-.44-.01-.91-.19-1.26-.53-.35-.36-.56-.84-.56-1.33,0-1.01.83-1.86,1.82-1.87,1.33,0,2.66.02,3.99.05,2.31.04,4.7.08,7.04-.05.45-.03.87.14,1.22.47.38.36.61.88.61,1.39Z"/>
        <path d="M60.05,12.91c0,1.01-.77,1.81-1.8,1.86-1.19.07-2.38.09-3.58.09s-2.34-.02-3.5-.04c-1.32-.03-2.65-.05-3.98-.04-.44-.01-.91-.19-1.26-.53-.35-.35-.56-.84-.56-1.33,0-1.01.83-1.86,1.82-1.87,1.33,0,2.66.02,4,.05,2.3.04,4.69.08,7.03-.05.45-.03.87.14,1.22.47.38.36.61.88.61,1.39Z"/>
        <path d="M60.05,35.69c0,1-.77,1.8-1.8,1.86-1.18.07-2.38.09-3.57.09s-2.35-.02-3.5-.04c-1.33-.03-2.66-.05-3.99-.04-.44-.02-.91-.19-1.26-.53-.35-.36-.56-.84-.56-1.34,0-1,.83-1.85,1.82-1.86,1.34-.01,2.66.02,3.99.04,2.31.05,4.7.09,7.04-.04.45-.03.87.14,1.22.47.38.36.61.88.61,1.39Z"/>
        <path d="M60.03,47.98c-.32.52-.91.82-1.6.83-5.21.06-10.47.08-15.7.08s-10.33-.02-15.4-.04c-5.93-.03-11.85-.05-17.77-.04-.62,0-1.08-.22-1.39-.55-.31-.33-.47-.75-.47-1.18,0-.86.64-1.74,1.87-1.74,5.93,0,11.84,0,17.75.04,10.19.04,20.74.08,31.11-.05h.02c.68,0,1.25.28,1.57.77.36.55.36,1.3.02,1.86Z"/>
      </g>
    </g>
  </g>
</svg>