<?xml version="1.0" encoding="UTF-8"?>
<svg id="Capa_2" data-name="Capa 2" xmlns="http://www.w3.org/2000/svg" viewBox="0 0 35.25 34.58">
  <g id="Capa_1-2" data-name="Capa 1">
    <path d="M30.91,33.85c-4.69-4.14-9.3-8.37-13.79-12.71-4.15,4.2-8.26,8.42-12.35,12.68-2.23,2.33-5.75-1.22-3.53-3.54,4.07-4.24,8.17-8.45,12.31-12.64C9.16,13.29,4.87,8.86.68,4.31-1.5,1.95,2.03-1.59,4.21.78c4.19,4.54,8.48,8.97,12.86,13.31,4.33-4.35,8.71-8.67,13.11-12.97,2.31-2.24,5.85,1.29,3.54,3.54-4.39,4.28-8.75,8.58-13.07,12.93,4.49,4.34,9.1,8.59,13.79,12.72,2.42,2.14-1.13,5.66-3.53,3.54Z"/>
  </g>
</svg>