<?xml version="1.0" encoding="UTF-8"?>
<svg id="Capa_2" data-name="Capa 2" xmlns="http://www.w3.org/2000/svg" viewBox="0 0 125.08 66.94">
  <g id="Capa_1-2" data-name="Capa 1">
    <path d="M4.01,55.93c.53-13.17,15.12-21.04,26.98-21.06,3.32,0,6.7.57,9.71,2.02l-.4-3.14c-6.2,6.75-10.93,14.66-14.89,22.89l1.73-.99c-8.39-.37-16.79-.44-25.19-.45-2.57,0-2.58,4,0,4,8.4,0,16.8.08,25.19.45.65.03,1.44-.39,1.73-.99,3.81-7.92,8.31-15.58,14.27-22.08.81-.88.81-2.55-.4-3.14-12.96-6.28-30.97-.74-38.95,11.02C1.45,47.86.17,51.83.01,55.93c-.1,2.57,3.9,2.57,4,0h0Z"/>
    <path d="M125.07,55.93c-.62-15.47-16.93-25.1-31.12-25.06-4.01.01-7.97.82-11.58,2.57-1.21.59-1.21,2.26-.4,3.14,5.96,6.5,10.46,14.16,14.27,22.08.29.6,1.07,1.02,1.73.99,8.39-.37,16.79-.44,25.19-.45,2.57,0,2.58-4,0-4-8.4,0-16.8.08-25.19.45l1.73.99c-3.96-8.23-8.7-16.13-14.89-22.89l-.4,3.14c5.5-2.67,12.1-2.48,17.88-.86s11.94,5.12,15.52,10.34c1.96,2.85,3.14,6.09,3.28,9.56.1,2.57,4.1,2.58,4,0h0Z"/>
    <path d="M26.66,25.21c2.99.53,5.97.35,8.72-1.01,2.22-1.1,4.08-3.02,5.22-5.21,2.37-4.54,2.14-10.29-1.08-14.35C36.12.35,29.19-1.21,24.22,1s-7.34,7.57-7.55,12.54c-.12,2.87.64,5.79,2.44,8.06,1.97,2.47,4.99,3.57,8.07,3.68,2.57.1,2.57-3.9,0-4-.32-.01-.64-.03-.96-.07,0,0-.15-.02-.47-.09-.28-.06-.56-.13-.83-.22-.15-.05-.86-.34-.54-.19-.42-.2-.81-.43-1.19-.68-.31-.21-.06-.04,0,.01-.11-.09-.21-.17-.31-.27-.18-.17-.36-.34-.52-.52-.09-.1-.18-.2-.26-.31-.19-.22.18.26.02.02-.14-.2-.27-.4-.4-.61-.11-.19-.21-.38-.31-.57-.05-.1-.09-.2-.14-.3.19.43-.02-.07-.04-.13-.14-.42-.27-.84-.37-1.28-.02-.11-.14-.76-.11-.57.02.15-.05-.51-.06-.67-.03-.49-.03-.99,0-1.48.01-.23.03-.47.06-.7.04-.39,0-.07,0,0,.03-.18.05-.35.09-.53.09-.47.2-.93.33-1.39.07-.26.16-.51.25-.77.05-.14.1-.28.15-.42.13-.35-.06.11.04-.1.2-.46.43-.91.68-1.34.12-.2.24-.4.37-.6.08-.11.54-.75.3-.44.3-.38.63-.75.98-1.09.16-.16.34-.31.51-.46.08-.07.38-.3.06-.06.11-.08.23-.17.35-.25.4-.27.82-.5,1.25-.71.34-.16.06-.03,0,0,.11-.04.21-.08.32-.12.27-.09.55-.17.83-.24.11-.02.77-.14.34-.08.27-.03.54-.05.81-.06.59-.02,1.18.05,1.77.1.94.08,2.21.33,3.31.78-.28-.11.37.18.48.24.22.11.43.24.64.37.68.42.54.31,1.08.82.33.31.65.65.93,1-.26-.33.17.25.23.35.14.21.27.43.39.65s.23.45.33.67c.13.27-.11-.3,0-.02.05.13.1.26.14.39.16.47.29.96.39,1.45.03.13.11.76.06.29.03.22.05.44.06.67.03.53.03,1.07-.01,1.6,0,.09-.08.72-.05.49.03-.21-.08.44-.11.57-.1.5-.24.98-.41,1.46-.05.14-.35.85-.17.46-.12.26-.24.51-.37.76-.25.47-.54.92-.86,1.35-.2.26.3-.35-.05.06-.09.11-.18.21-.28.32-.19.21-.39.41-.59.6-.19.17-.38.34-.58.5.3-.24-.32.21-.43.29-.24.16-.5.3-.75.43-.1.05-.21.1-.32.16-.52.25.36-.13-.18.08-.58.22-1.17.38-1.78.5-.12.03-.25.05-.38.06.4-.06-.23.02-.25.02-.34.02-.68.04-1.02.04-.73,0-1.35-.07-1.87-.17-1.06-.19-2.16.29-2.46,1.4-.27.97.33,2.27,1.4,2.46Z"/>
    <path d="M71.04,13.17c-2.25-2.08-4.92-3.52-7.99-3.85-2.5-.26-5.08.38-7.23,1.66-4.24,2.51-7.05,7.52-6.45,12.49.69,5.64,5.37,10.77,11.12,11.33,5.01.48,9.93-2.62,12.73-6.59,1.5-2.13,2.44-4.84,2.21-7.46-.29-3.33-2.18-5.92-4.79-7.9-.86-.65-2.24-.14-2.74.72-.6,1.03-.15,2.08.72,2.74-.23-.18.1.08.15.13.12.11.25.21.37.32.19.17.37.35.54.53.21.22.41.44.59.68-.25-.32.21.32.28.43.13.21.25.42.36.64.06.12.12.24.17.36-.03-.07-.12-.38-.02-.04.14.47.28.92.37,1.4.06.3-.02-.5,0-.01,0,.1.02.2.02.3.01.22.02.45,0,.67s-.03.45-.05.67c.04-.54-.04.19-.07.36-.1.45-.23.88-.38,1.31,0,.02-.19.48-.07.19s-.08.17-.09.18c-.11.23-.23.47-.36.69-.23.41-.49.81-.77,1.2-.06.09-.13.17-.19.26.25-.33.07-.09.01-.03-.2.22-.38.45-.58.67-.33.36-.68.69-1.05,1.01-.09.08-.65.53-.29.25-.22.17-.44.32-.66.48-.4.27-.82.53-1.25.75-.24.13-.48.24-.73.36-.08.04-.35.15.03-.01-.15.06-.3.12-.45.17-.45.16-.91.3-1.37.41-.2.05-.41.08-.62.12-.49.12.3-.03-.01,0-.16.02-.31.03-.47.04-.47.03-.93.03-1.4,0-.13-.01-.26-.02-.39-.04.08,0,.42.09.07,0-.25-.06-.51-.1-.76-.17s-.5-.16-.75-.24c-.09-.03-.34-.15.03.02-.1-.04-.2-.09-.29-.14-.49-.26-.97-.53-1.42-.88.24.18-.06-.05-.08-.08-.14-.12-.28-.24-.42-.36-.24-.21-.47-.43-.69-.66-.19-.2-.38-.4-.56-.6-.11-.13-.22-.25-.32-.38-.09-.11-.08-.1.02.02-.06-.08-.11-.16-.17-.23-.31-.46-.6-.93-.85-1.43-.07-.13-.13-.27-.19-.4.03.07.13.35,0,0-.1-.27-.19-.54-.27-.81s-.15-.54-.2-.82c-.03-.16-.1-.73-.06-.29-.05-.54-.08-1.08-.05-1.62.01-.21.03-.43.05-.64-.05.53.06-.3.08-.42.1-.49.24-.98.41-1.45.05-.12.09-.25.14-.37-.03.07-.18.37-.01.04.11-.21.2-.43.32-.64.24-.45.51-.87.79-1.28,0,0,.32-.42.13-.18s.14-.16.14-.17c.14-.16.28-.32.42-.47.36-.39.76-.74,1.16-1.07-.36.3.24-.17.36-.25.22-.15.44-.29.67-.42.25-.14.51-.27.77-.4.1-.05.44-.19.03-.02.15-.06.29-.12.44-.17.5-.18,1.01-.31,1.53-.41.02,0,.53-.08.21-.04-.3.04.23-.02.29-.02.3-.02.59-.03.89-.03.28,0,.55.03.82.05.38.03.04,0-.03,0,.17.03.33.06.5.09.28.06.56.13.84.21.14.04.28.09.42.14.06.02.55.21.35.13.29.12,1.13.56,1.6.87.65.42.93.65,1.57,1.25,1.89,1.75,4.72-1.07,2.83-2.83Z"/>
    <path d="M83.37,10.61c-.6,5.21,1.89,10.31,6.79,12.46,4.45,1.95,9.87,1.43,13.54-1.88s4.91-10.12,2.54-14.65S98.7-.01,94,.08c-2.74.05-5.44.89-7.53,2.7-2.24,1.95-3.17,4.93-3.11,7.83.06,2.44,3.85,2.45,3.8,0-.03-1.29.03-1.76.44-3,.02-.07.14-.34,0-.01.04-.1.09-.2.14-.3.1-.19.2-.38.31-.56.06-.09.4-.58.3-.45-.08.1.31-.35.41-.45.15-.15.3-.28.45-.42.31-.28-.15.06.29-.21.4-.25.79-.48,1.22-.68.32-.15.04-.02-.02,0,.1-.04.2-.08.3-.11.23-.08.45-.15.68-.21s.47-.12.7-.17c.14-.03.7-.12.55-.1-.18.02.44-.04.57-.04.22-.01.44-.02.66-.02.5,0,1.01.03,1.51.08.37.04.07,0,0,0,.14.02.28.04.42.07.22.04.44.09.66.14.52.12,1.04.27,1.54.45.11.04.67.27.33.12.21.09.41.18.61.28.47.24.93.5,1.36.8.09.06.18.13.27.19.24.17-.22-.18,0,0,.19.15.38.31.56.48.16.15.31.3.46.46.09.09.57.67.33.35.66.86.94,1.5,1.15,2.21.07.24.12.49.17.73.02.07.06.37,0,0,.01.11.03.23.03.35.03.57.01,1.14,0,1.71-.02,1.19-.15,2.01-.57,3.24-.04.11-.08.23-.13.34.03-.07.14-.3-.02.04-.1.21-.2.42-.31.63-.12.22-.26.44-.4.66-.06.09-.13.18-.19.28-.13.18.17-.19-.06.08-.31.38-.66.71-1.02,1.05-.08.07-.16.14-.25.21.06-.05.29-.21,0,0-.22.15-.44.3-.66.44-.18.11-.37.21-.55.31-.11.06-.66.3-.49.24.18-.07-.36.13-.44.16-.25.08-.5.16-.76.22-.23.06-.46.11-.7.15-.1.02-.21.04-.31.05.07-.01.4-.04.03,0-.48.05-.96.07-1.44.06-.21,0-.43-.01-.64-.03-.13-.01-.27-.02-.4-.04-.29-.03.32.05.03,0-.5-.08-1-.19-1.48-.33-.23-.07-.46-.15-.68-.23-.13-.04-.25-.09-.37-.14.25.1.1.04-.06-.03-.48-.25-.94-.5-1.39-.79-.09-.06-.17-.12-.26-.18-.18-.13.21.18-.06-.04-.21-.17-.41-.35-.6-.53s-.37-.39-.56-.59c-.07-.08-.14-.17-.21-.25.25.31-.05-.07-.1-.14-.31-.47-.59-.94-.83-1.45-.15-.33-.04-.09-.01-.02-.06-.16-.12-.33-.18-.49-.09-.28-.17-.57-.24-.86-.16-.7-.17-.74-.2-1.57-.03-.7.01-1.4.1-2.09.12-1.02-.96-1.9-1.9-1.9-1.12,0-1.78.88-1.9,1.9Z"/>
    <path d="M39.52,64.45c0-4.86,1.26-9.67,4.18-13.61s7.66-6.65,12.56-7.82c5.68-1.36,11.76-1.28,16.92,1.67,4.43,2.54,7.85,6.59,10.16,11.1.97,1.89,1.73,3.89,2.19,5.97.1.46.2.93.26,1.4-.04-.3,0,.26.02.29.14.17-.43,1.29.29-.48.26-.63.19-.66.63-.95.53-.35.33-.15-.13-.05-.53.12.2-.01-.03,0-.2.02-.4.05-.6.07-.51.05-1.01.09-1.52.13-1.41.1-2.82.17-4.23.24-8.13.37-16.28.5-24.42.55-3.79.03-7.58.03-11.37-.03-1.32-.02-2.65-.05-3.97-.11-.47-.02-.95-.05-1.42-.08-.18-.01-.37-.03-.55-.05-.59-.04.3.08.01,0-.08-.02-.19-.02-.26-.05.21.1,1.07.55,1.19,1.27-.17-1.06-1.48-1.64-2.43-1.38-1.12.31-1.56,1.38-1.38,2.43.35,2.16,4.33,1.79,5.85,1.84,3.64.12,7.28.13,10.92.12,8.96-.02,17.93-.15,26.89-.53,2.73-.11,5.51-.16,8.21-.6,1.17-.19,2.26-.8,2.3-2.16.05-2.2-.81-4.67-1.61-6.69-2.1-5.3-5.49-10.14-10-13.65-5.28-4.1-11.49-5.58-18.09-4.91-6.27.63-12.39,2.8-17.01,7.2-4.01,3.82-6.46,9.03-7.22,14.48-.2,1.45-.31,2.9-.31,4.36,0,2.55,3.96,2.55,3.96,0Z"/>
  </g>
</svg>