<?xml version="1.0" encoding="UTF-8"?>
<svg id="Capa_2" data-name="Capa 2" xmlns="http://www.w3.org/2000/svg" viewBox="0 0 62.61 62.71">
  <g id="Capa_1-2" data-name="Capa 1">
    <path d="M49.72,24.59s.02-.04.03-.05c-.01.02-.02.05-.04.09v-.02s0-.01,0-.02Z"/>
    <path d="M50.79,17.77s-.02-.07-.03-.1h.01s0,.04.02.1Z"/>
    <path d="M50.96,47.4s-.03-.03-.06-.05c-.01-.01-.02-.03-.03-.04-.06-.08-.09-.13-.1-.15.01.01.02.02.04.05.02.02.04.04.06.07.05.05.09.1.09.12Z"/>
    <g>
      <path d="M14.26,57.31c1.36.08,2.72-.74,3.92-1.29,1.17-.53,2.34-1.08,3.51-1.61-.03.91-.03,1.82.07,2.73.13,1.15.35,2.35,1.15,3.24,1.08,1.2,2.88,1.56,4.41,1.85,3.2.61,6.91.76,10.04-.24,1.94-.62,2.74-2.06,3.43-3.87.35-.93.66-1.85.97-2.79.23.18.45.35.69.53.95.73,2.04,1.9,3.21,2.28,1.38.43,2.36-.35,3.34-1.22,1.08-.97,2.14-1.97,3.15-3.01.96-.98,1.9-1.98,2.79-3.02.81-.93,1.57-1.85,1.63-3.13.06-1.28-.47-2.53-.83-3.74-.16-.54-.33-1.1-.5-1.64,2.08-.11,4.1-.64,5.64-2.19,2.25-2.28,1.78-5.43,1.39-8.31-.21-1.54-.47-3.07-.75-4.6-.28-1.51-.85-2.9-2.44-3.42-1.38-.45-2.83-.52-4.19-1.04,1.07-1.86,1.99-3.81,3-5.69.16-.3.24-.61.24-.91.03-.57-.23-1.1-.63-1.46-.25-.23-.54-.4-.86-.52.23.04.45.1.65.21-1.51-1.62-3.11-3.13-4.76-4.59-.81-.71-1.63-1.41-2.43-2.12-.78-.69-1.54-1.6-2.4-2.16-1.79-1.18-3.64,0-5.13,1.09-.89.65-1.75,1.34-2.62,2.01-.37-1.77-.68-3.58-1.29-5.28-.52-1.44-1.32-2.73-2.87-3.18-1.41-.41-3.04-.14-4.49-.06-2.86.12-6.68-.48-8.33,2.4-1.01,1.77-1.72,3.75-2.31,5.75-.3-.27-.59-.52-.91-.78-1.11-.93-2.4-2.21-3.86-2.5-1.8-.37-3.28,1.07-4.54,2.14-1.47,1.23-2.81,2.62-3.98,4.15-.96,1.24-2.06,2.43-1.66,4.09.26,1.07.79,2.11,1.24,3.11.45.95.78,1.96,1.1,2.96.06.18.11.35.17.54-.5.08-1,.16-1.51.23-1.45.22-2.91.42-4.36.69-.69.13-1.25.77-1.42,1.42C.18,27.27-.15,30.3.07,33.29c.14,2.08.3,6.58,2.89,7.3,1.11.3,2.4.28,3.54.37.37.03.73.05,1.09.08-.47,1.07-.97,2.14-1.49,3.19-.73,1.46-1.91,2.93-1.02,4.61.46.88,1.35,1.59,2.03,2.3.76.81,1.53,1.61,2.31,2.41,1.29,1.36,2.79,3.64,4.84,3.75ZM9.66,21.76c.42-.3.49-.06,0,0h0ZM13.06,51.59c-1.05-1.09-2.09-2.18-3.13-3.27-.22-.22-.44-.45-.66-.69-.09-.09-.18-.18-.26-.28-.11.19-.2.35-.25.35-.29-.77-.28-.98.02-.59l.23.23c.14-.27.28-.59.31-.66.45-.86.86-1.75,1.27-2.64.57-1.26,1.12-2.53,1.64-3.8.59-1.42-.12-2.86-1.74-2.98-1.25-.09-2.5-.18-3.76-.28-.61-.04-1.21-.12-1.82-.13.1.01.16.03.18.04-.01,0-.03,0-.06,0-.03,0-.06,0-.09,0-.07,0-.13,0-.15-.02.01,0,.04,0,.08,0-.05,0-.1-.01-.15-.02-.64-1.37-.66-3.07-.71-4.54-.06-1.92.13-3.8.52-5.66,2.13-.32,4.36-.45,6.41-1.05,3.05-.91,1.17-4.73.45-6.72-.45-1.23-1.05-2.4-1.53-3.62-.06-.13-.08-.27-.13-.41-.04.07-.08.13-.13.2-.09-.78-.08-.96,0-.52.05.09.09.21.12.32.13-.18.26-.37.4-.55.61-.85,1.3-1.64,2.04-2.39.85-.88,1.76-1.72,2.73-2.46.11-.08.2-.16.3-.23.06-.02.11-.06.16-.08-.1-.06-.2-.11-.3-.16.42-.02.52.03.3.16.24.17.47.38.68.54,1.49,1.15,2.91,2.43,4.24,3.75,1.09,1.09,2.93.54,3.34-.91.66-2.28,1.31-4.6,2.28-6.78.16-.36.36-1.08.66-1.36-.18.18.78,0,.78,0,1.32-.07,2.64-.12,3.96-.18.65-.03,1.31-.06,1.97-.09.34-.01.98-.15,1.32-.02-.01-.01-.01-.03-.01-.04.01.01.03.03.04.05h-.01s.02.05.04.08c.09.15.16.3.21.48.18.48.3,1,.43,1.49.54,2.14.83,4.32,1.51,6.42.37,1.15,1.77,1.97,2.92,1.22,1.26-.81,2.43-1.75,3.62-2.67.69-.55,1.59-1.44,2.5-1.85-.12-.12-.24-.2-.31-.21.34,0,.67,0,1.01,0-.23.04-.47.11-.7.22.28.25.6.63.73.74.35.3.7.62,1.05.92.81.71,1.62,1.41,2.42,2.12,1.27,1.12,2.49,2.28,3.67,3.49-1.13,2.22-2.24,4.48-3.66,6.53-.95,1.37.4,2.82,1.74,2.98.09,0,.99.27,1.42.43,1.03.42,2.09.76,3.19.98.22.04.76.06,1.08.13-.04-.13.03-.11.19.08-.04-.03-.11-.06-.19-.08,0,.06.04.16.08.28.05.3.11.62.16.91.19,1.07.37,2.14.54,3.21.22,1.46.94,3.98-.08,5.25-1.27,1.58-3.92,1.23-5.66,1.12-1.27-.08-2.29,1.33-1.93,2.51.42,1.39.83,2.8,1.26,4.2.18.62.69,1.59.66,2.25,0,.43-.22.53-.59.95-.95,1.1-1.94,2.16-2.98,3.19-.51.51-1.03,1.02-1.57,1.51-.24.23-.62.71-.97,1.05-.23-.2-.45-.42-.61-.54-.37-.29-.75-.58-1.12-.87-.87-.67-1.75-1.35-2.62-2.02-1.17-.9-2.9-.69-3.35.91-.37,1.32-.76,2.63-1.2,3.92-.32.91-.52,2.52-1.53,2.82-2.25.68-4.98.61-7.27.23-.88-.15-1.98-.27-2.79-.71h0s-.04-.02-.09-.05c.03.01.06.04.09.05-.02-.02-.06-.11-.1-.27-.08-.35-.11-.62-.14-.96-.08-1.46.11-2.9.07-4.36-.06-1.68-1.15-2.99-2.95-2.5-1.39.38-2.74,1.11-4.04,1.71-1.29.59-2.91,1.07-4.11,1.86.18,0,.05.29-.1.01-.06.01-.13.05-.22.11.09-.06.16-.11.21-.13,0-.02-.01-.04-.03-.07-.18-.47-1.12-1.17-1.48-1.55ZM21.8,52.16s-.02-.05-.04-.09h.01s0,.03,0,.04c0,.02.01.04.01.06ZM23.64,53.59s.07-.03.08-.04c.38-.23.63.16-.08.04Z"/>
      <path d="M21.88,42.46c2.45,1.91,5.46,3.03,8.59,2.96,3.42-.07,6.53-1.48,9.16-3.58.15-.08.28-.18.42-.3,4.45-4.18,5.53-10.34,3.09-15.86-2.13-4.82-7.09-8.61-12.48-8.44-6.1.18-11.93,5.37-13.6,11.11-1.5,5.18.62,10.83,4.82,14.11ZM23.32,38.35c-.18-.18-.34-.37-.51-.55-.06-.08-.13-.16-.2-.24h-.01s-.01-.04-.02-.05l-.02-.02c-.3-.43-.59-.88-.84-1.35-.48-.89-.69-1.4-.94-2.6-.05-.22-.08-.44-.11-.65,0,0-.04-.43-.04-.53-.04-.54-.02-1.1.05-1.65,0,0,0-.01,0-.03h0c.02-.1.09-.48.09-.52.06-.26.13-.52.2-.78.19-.67.28-.88.52-1.37.59-1.18,1.15-1.97,2.01-2.87,1.82-1.9,3.68-3.22,6.11-3.75.38-.08.62-.11,1.24-.12.25,0,.51.01.76.03.12,0,.25.02.37.04.05,0,.11.02.14.03.49.08.98.21,1.46.37.11.04.23.08.35.13h.01s.04.01.05.02h0c.24.12.48.23.72.36,1.14.6,1.46.85,2.32,1.68.36.36.71.74,1.03,1.13l.03.03s.02.04.04.05h.01s.03.06.05.08c.04.07.08.13.13.19.16.23.33.48.47.73,2.49,4.09,2.11,8.84-1.36,12.31h-.01s-.03.04-.03.04c-.06.03-.1.07-.16.11-.95.81-2.06,1.53-3.27,2.04-.65.28-2.18.67-2.81.72-1.2.1-1.94.04-2.91-.18-1.2-.28-1.63-.44-2.7-1.06-1.03-.59-1.34-.83-2.23-1.77Z"/>
    </g>
  </g>
</svg>