<?xml version="1.0" encoding="UTF-8"?>
<svg id="Capa_2" data-name="Capa 2" xmlns="http://www.w3.org/2000/svg" viewBox="0 0 61.05 43.77">
  <g id="Capa_1-2" data-name="Capa 1">
    <path d="M60.84,4.41c0-.1.01-.2,0-.3-.27-2.18-2.39-3.84-5.45-4.09-.11-.01-.23-.02-.35-.02h-.01L5.32.06c-.32,0-.65.04-.96.11C2.05.72.49,1.92.05,3.68c-.03.13-.04.25-.04.38v35.52c-.01.09,0,.17.01.26.34,2.09,2.54,3.67,5.45,3.91.11.01.23.02.35.02h49.17c.15,0,.3-.01.45-.02,3.39-.37,5.34-1.98,5.42-4.43.43-13.38-.02-23.01-.02-34.91ZM5.05,3.09c.09-.02.18-.03.28-.03l49.7-.06h.02s.06,0,.09.01c.22.02.43.05.62.08l-23.53,23.64c-.54.54-1.26.84-2.04.84s-1.49-.3-2.03-.84L4.63,3.21c.16-.06.31-.09.42-.12ZM3.01,5.81l16.46,16.46c-5.49,5.4-10.97,10.8-16.47,16.19V5.81ZM55.12,40.76c-.05.01-.09.01-.13.01H5.71c-.39-.03-.74-.1-1.05-.19,5.57-5.47,11.14-10.94,16.7-16.42l4.69,4.68c1.11,1.1,2.58,1.71,4.14,1.71h.01c1.57,0,3.04-.61,4.14-1.72l4.78-4.81c5.48,5.56,10.95,11.13,16.42,16.69-.14.02-.28.03-.42.05ZM57.86,39.22v.03c-5.62-5.71-11.23-11.41-16.85-17.12L57.84,5.22c.01,3.76.05,7.34.11,10.8.1,7.42.19,14.43-.09,23.2Z"/>
  </g>
</svg>