<?xml version="1.0" encoding="UTF-8"?>
<svg id="Capa_2" data-name="Capa 2" xmlns="http://www.w3.org/2000/svg" viewBox="0 0 45.06 51.26">
  <g id="Capa_1-2" data-name="Capa 1">
    <path d="M44.85,6.41c.27-3.95-.97-6.57-5.35-6.15-6.73-.33-13.48.07-20.2-.07-2.72.47-7.95-1.62-8.82,1.97-.08,2.26-.13,4.53-.16,6.79-.41,0-.82,0-1.23,0-2.72.47-7.96-1.62-8.82,1.98C-.09,21.65.05,32.41.03,43.14c.16,3.13-1.09,8.69,3.77,7.94,9.77-.07,25.86.17,28.86.18h.19c.98,0,2-.76,2-2.13,0-.43,0-3.07-.03-6.71,3.87.04,6.91.08,8.05.08h.19c.98,0,2-.75,2-2.12,0-1.56-.13-32.41-.21-33.97ZM31.06,47.77c-9.11-.05-18.22-.35-27.32-.58-.13-11.53-.08-23.08.14-34.62,2.13.07,4.26.08,6.39.06,1.23-.02,2.46-.04,3.69-.07,5.61-.13,11.23-.32,16.82.04.25,1.26.28,15.86.28,26.27v8.9ZM41.27,39.01c-2.15,0-4.31-.03-6.46-.07-.05-9.64-.12-22.77-.17-23.77.27-3.95-.97-6.57-5.35-6.16-5.09-.25-10.19-.08-15.28-.05.02-1.71.05-3.43.08-5.14,8.95.29,17.96-.55,26.9.03.34,1.72.28,28.37.28,35.16Z"/>
  </g>
</svg>