<?xml version="1.0" encoding="UTF-8"?>
<svg id="Capa_2" data-name="Capa 2" xmlns="http://www.w3.org/2000/svg" viewBox="0 0 51.65 64.04">
  <g id="Capa_1-2" data-name="Capa 1">
    <path d="M51.18,5.11c0-.11.01-.23,0-.34-.22-2.5-2-4.41-4.56-4.7-.07-.01-.15-.02-.22-.01-.06,0-.11,0-.17,0-.06-.01-.11-.01-.17-.01L5.15.12h-.46c-.06,0-.13,0-.19.01-.11.02-.23.04-.34.07h-.03c-.08.01-.17.02-.25.05C1.94.87.64,2.25.27,4.28c-.02.14-.03.28-.03.43v40.87s-.01,12.93-.01,12.93c0,.04,0,.07.01.11.54,2.57,2.22,4.45,4.4,4.85.06.02.11.02.17.03.09.02.19.02.29.02h41.18c.12,0,.25-.01.37-.03,2.85-.43,4.48-2.36,4.54-5.3.06-2.69.1-5.25.12-7.72.05-4.67.04-9,.01-13.23.12-11.49-.14-20.94-.14-32.13ZM48.13,58c0,.71-.45,1.9-2.14,1.9H5.03c-.35-.02-.67-.19-1-.52-.48-.49-.76-1.28-.77-2.15l-.02-6.87h2.94s-.02-.01-.04-.02h40.52c.56,0,.99-.01,1.47-.01v7.67ZM44.57,47.31h.01v.06s-.01-.04-.01-.06c-12.49,0-25.1-.18-37.62.15.15-21.2,36.77-22.07,37.62-.15ZM22.37,11.46c5.31-3.34,13.91,2.08,11.21,8.45-.71,3.38-3.78,4.73-6.89,5.1-8.23,1.16-9.94-9.14-4.32-13.55ZM48.38,15.13v31.81c-.07.1-.15.2-.25.29-.01.01.32-.28.31-.27.02-.17.03.86.03.67,0-.87-.31-2.93-.78-4.16-1.86-9.08-9.58-14.25-17.86-15.56,5.16-1.81,9.1-6.83,7.44-12.95-6.54-17.93-31.3-1.85-18.3,11.5.84.63,1.75,1.11,2.68,1.45-7,1.1-13.45,5.08-16.46,12.04-1.13,2.06-1.86,3.75-2.07,5.14-.08.5-.15,1-.12,1.43,0-.17.01-.11-.02-.29l-.14-39.82c-.04-1.47,1.04-2.85,2.18-2.99l17.66.05s-.01-.03-.01-.04h23.99c1.48,0,1.72,1.4,1.72,2.14l.03,9.56h-.03Z"/>
    <path d="M47.15,3c.83,0,1.5.67,1.5,1.5v55.04c0,.83-.67,1.5-1.5,1.5H4.5c-.83,0-1.5-.67-1.5-1.5V4.5c0-.83.67-1.5,1.5-1.5h42.65M47.15,0H4.5C2.01,0,0,2.01,0,4.5v55.04c0,2.49,2.01,4.5,4.5,4.5h42.65c2.49,0,4.5-2.01,4.5-4.5V4.5c0-2.49-2.01-4.5-4.5-4.5h0Z"/>
  </g>
</svg>