<?xml version="1.0" encoding="UTF-8"?>
<svg id="Capa_2" data-name="Capa 2" xmlns="http://www.w3.org/2000/svg" viewBox="0 0 67.45 68.03">
  <g id="Capa_1-2" data-name="Capa 1">
    <g>
      <g>
        <path d="M46.88,10.41c-.88-2.56-2.44-4.91-4.52-6.66C37.63-.21,30.65-1.17,25.05,1.52c-2.76,1.33-4.55,4.29-5.95,6.9-1.6,3.01-2.1,6.25-1.58,9.62.52,3.38,2.14,6.76,4.94,8.82,2.68,1.95,6.74,2.79,10.05,2.54.29.05.61.03.93-.07.02,0,.04,0,.06,0,2.76-.47,5.61-1.3,7.98-2.83,2.55-1.65,3.73-3.87,4.79-6.65,1.14-3,1.67-6.33.61-9.43ZM42.06,17.31c-.63,1.99-1.27,3.9-3.02,5.02-1.85,1.19-3.98,1.82-6.14,2.23h0c-2.2.23-4.82-.12-6.81-1.12-1.91-.97-2.92-2.8-3.5-4.8-.66-2.25-.68-4.67.23-6.86.39-.94.96-1.84,1.51-2.71.61-.95,1.2-2.06,2.11-2.78,1.59-1.25,4.05-1.52,5.99-1.45,2.16.06,4.23.74,6.01,1.95,1.54,1.05,2.83,2.62,3.57,4.34.88,2.04.69,4.1.04,6.19Z"/>
        <path d="M27.58,34.32c-4.66.18-8.55,1.54-13.66,4.45-2.69,1.53-4.6,3.56-6.41,6.04-1.67,2.28-3.32,4.58-4.66,7.08-2.28,4.24-5.48,13.3.9,15.55.1.05.22.09.33.12.2.06.41.1.63.12,2.56.22,5.1,0,7.67,0,2.96,0,5.92.08,8.9.12,5.55.08,11.1.15,16.64.23.83.01,1.63-.4,2.06-1.12.25-.42.45-.97.45-1.63,0-.02,0-.04,0-.05-.02-1.24-1.1-2.21-2.34-2.23-5.58-.08-11.5-.15-17.06-.22-2.88-.04-5.76-.12-8.65-.12-2.35,0-4.67.18-7.01.04-1.03-.4,0-3.79.2-4.47.59-2.01,1.56-3.87,2.66-5.64,2.16-3.52,4.54-7.42,8.21-9.5,4.16-2.36,6.44-3.32,11.12-3.95.86-.12,2.18-.56,2.18-2.68s-2.18-2.14-2.18-2.14Z"/>
      </g>
      <path d="M64.17,25.1c-1.91-2.01-3.99-4.09-6.52-5.29,0,0-.02-.02-.04-.02-.85-.58-2-.66-2.94.28-3.73,3.76-7.47,7.53-11.21,11.28l-7.57,7.63c-.83.83-1.65,1.66-2.47,2.48-.91.91-1.39,1.83-1.76,3.05-.62,1.99-1.01,4.08-1.44,6.13-.31,1.52-.49,3.18-1.04,4.64-.65,1.72,1.31,3.5,2.97,2.96,2.87-.93,5.75-1.81,8.58-2.88,1.79-.67,3.7-1.29,5.16-2.58,2.4-2.12,4.62-4.47,6.86-6.75,3.11-3.13,6.21-6.28,9.27-9.46,1.13-1.17,2.26-2.33,3.37-3.52.58-.62,1.33-1.27,1.75-2.01,1.26-2.18-1.63-4.54-2.97-5.95ZM60.24,31.48c-2.17,2.26-4.37,4.51-6.56,6.75-3.7,3.77-7.54,7.42-11.25,11.17.02,0,.05,0,.07,0,.22-.02-.55.5-.23.17l.16-.16c-.27.07-.68.38-.92.48-1.08.49-2.24.92-3.37,1.32-1.11.4-2.23.77-3.35,1.15.37-1.75.72-3.5,1.16-5.23.17-.65.38-1.26.56-1.9-.03.03-.06.07-.09.1.03-.03.05-.08.09-.14-.08.08.12-.35.05-.11,0,.02,0,.04-.02.06h0s0,.02,0,.02c0,.03,0,.05-.02.08.05-.06.1-.13.14-.16.78-.73,1.51-1.51,2.25-2.26,4.98-5.01,9.95-10.01,14.93-15.02.97-.99,1.96-1.98,2.93-2.96.37.26.42.32.84.66.92.76,1.77,1.59,2.6,2.44.58.59,1.15,1.2,1.71,1.82-.55.59-1.1,1.17-1.66,1.74Z"/>
      <path d="M35.87,44.49s0,.05-.02.08c-.03.03-.06.07-.09.1.03-.03.05-.08.09-.14,0,0,0-.02.02-.03Z"/>
      <path d="M35.9,44.41s0,.04-.02.06h0s0,.02,0,.02c0,0-.02.03-.02.03-.08.08.12-.35.05-.11Z"/>
      <path d="M41.61,48.91l.16-.16s.05,0,.07,0c.22-.02-.55.5-.23.17Z"/>
    </g>
  </g>
</svg>