<?xml version="1.0" encoding="UTF-8"?>
<svg id="Capa_2" data-name="Capa 2" xmlns="http://www.w3.org/2000/svg" viewBox="0 0 69.41 68.03">
  <g id="Capa_1-2" data-name="Capa 1">
    <g>
      <path d="M35.39,0c-.17,0-.35,0-.51.03.49,0,.97.02,1.47.05-.32-.05-.64-.08-.96-.08Z"/>
      <path d="M56.7,9.14C51.88,4.75,45.87,1.47,39.38.42c-1.01-.17-2.03-.28-3.04-.34-.49-.03-.98-.05-1.47-.05-.12,0-.23,0-.35,0C29.01.02,23.61,1.53,18.74,4.29c-1.54.88-3.01,1.89-4.42,2.96-.1.04-.19.09-.29.15C7.91,11.66,3.04,17.57,1.03,24.85c-1.77,6.43-1.2,13.4,1.2,19.6,4.97,12.88,17.06,22.75,31.05,23.53.57.03,1.13.05,1.7.05,7.41,0,14.65-2.66,20.75-6.79,5.96-4.04,10.64-9.75,12.61-16.74,3.57-12.73-2.13-26.71-11.63-35.36ZM54.1,12c3.86,3.51,6.85,7.77,8.81,12.31-4.28.14-8.57.14-12.86.13-.99-5.85-2.65-11.21-4.69-15.34-.68-1.36-1.41-2.63-2.17-3.74,3.85,1.33,7.57,3.59,10.92,6.64ZM46.74,43.86c-.02.14-.04.27-.06.41-1.82-.02-3.64-.04-5.46-.05-5.49-.04-10.99-.1-16.48-.14-.03-.14-.05-.29-.08-.43-.89-5.08-1.16-10.51-.78-15.57,7.61.08,15.21.15,22.82.17.61,4.96.71,10.31.04,15.62ZM29.31,9.69l.31-.51c.62-1.05,1.17-1.87,1.68-2.52,1.3-1.63,2.62-2.61,3.74-2.77.13-.02.23-.03.35-.03.17,0,.34.02.52.06.11.03.22.06.35.11,1.73.62,3.83,3.16,5.63,6.78,1.7,3.44,3.24,8.19,4.23,13.59-2.05-.02-4.08-.05-6.13-.06-5.23-.04-10.46-.09-15.68-.14,1-6.96,3.15-11.61,4.9-14.41l.12-.11ZM16.01,10.74l.23-.1.42-.32c1.44-1.09,2.74-1.97,3.99-2.67,2.33-1.32,4.79-2.31,7.3-2.94-.58.76-1.12,1.61-1.64,2.5-.05.04-.09.09-.14.15-2.67,4.12-4.82,9.82-5.76,16.8-3.09-.03-6.17-.06-9.26-.09-1.92-.02-3.86-.1-5.79-.05,2.31-6.32,6.93-10.67,10.66-13.3ZM6.18,43.92c-.13-.28-.23-.57-.35-.86-1.91-4.95-2.44-10.25-1.54-15.14,1.82-.08,3.68,0,5.5,0,3.41.02,6.82.06,10.23.1-.37,5.37-.06,10.94.8,16.01-2.77-.03-5.53-.06-8.3-.08-2.1-.02-4.23-.12-6.33-.04ZM8.07,47.75c1.06,0,2.11.04,3.17.05,3.45.02,6.89.06,10.35.1,1.49,6.41,3.79,11.84,6.58,15.4-8.25-2.07-15.62-7.77-20.09-15.55ZM35.59,63.96c-.1,0-.2,0-.29-.02-3.09-.39-7.28-6.05-9.74-16.01,6.82.07,13.63.14,20.45.15-.94,4.23-2.42,7.98-4.32,10.82-2.1,3.17-4.38,5.05-6.1,5.05ZM53.56,58.05c-3.21,2.17-6.57,3.78-9.96,4.81.45-.56.89-1.17,1.31-1.81,2.19-3.28,3.99-7.68,5.06-12.96,1.39,0,2.77,0,4.16,0,2.89,0,5.76,0,8.65-.06-2.48,4.7-6.2,7.96-9.22,10ZM64.62,43.45c-.07.24-.14.48-.22.72-4.6.15-9.21.16-13.82.13.66-5.29.6-10.8,0-16.05h2.42c3.76,0,7.51,0,11.27-.13,1.53,5.16,1.71,10.48.35,15.32Z"/>
    </g>
  </g>
</svg>