<?xml version="1.0" encoding="UTF-8"?>
<svg id="Capa_2" data-name="Capa 2" xmlns="http://www.w3.org/2000/svg" viewBox="0 0 68.19 41.12">
  <defs>
    <style>
      .cls-1 {
        fill: #fff;
      }

      .cls-2 {
        fill: none;
      }
    </style>
  </defs>
  <g id="Capa_1-2" data-name="Capa 1">
    <g>
      <g>
        <path d="M10.31,35.24H2.3c-1.27,0-2.3-1.17-2.3-2.62s1.03-2.62,2.3-2.62h8c1.27,0,2.3,1.17,2.3,2.62s-1.03,2.62-2.3,2.62Z"/>
        <path class="cls-1" d="M32.34,29.88s.01.03.01.05h.01s-.01-.03-.02-.05Z"/>
        <path d="M67.46,30.79c-.45-.45-1.08-.73-1.77-.73l-33.33.08h-.01s-.01-.03-.01-.05c-1.08-3.46-4.31-5.98-8.13-5.98-4.69,0-8.5,3.81-8.5,8.51s3.81,8.5,8.5,8.5c3.82,0,7.05-2.52,8.13-5.98l33.36-.08c1.38-.01,2.5-1.13,2.49-2.51,0-.69-.28-1.31-.73-1.76ZM24.21,37.12c-1.53,0-2.89-.77-3.7-1.95-.51-.72-.8-1.6-.8-2.55,0-.9.26-1.74.73-2.45.8-1.24,2.19-2.06,3.77-2.06s2.97.81,3.77,2.04c.47.71.74,1.56.74,2.47s-.29,1.81-.79,2.53c-.81,1.19-2.17,1.97-3.72,1.97Z"/>
        <path class="cls-2" d="M28.72,32.41c0,.94-.29,1.81-.79,2.53-.81,1.19-2.17,1.97-3.72,1.97s-2.89-.77-3.7-1.95c-.51-.72-.8-1.6-.8-2.55,0-.9.26-1.74.73-2.45.8-1.24,2.19-2.06,3.77-2.06s2.97.81,3.77,2.04c.47.71.74,1.56.74,2.47Z"/>
      </g>
      <g>
        <path d="M65.89,11.19h-8c-1.27,0-2.3-1.17-2.3-2.62s1.03-2.62,2.3-2.62h8c1.27,0,2.3,1.17,2.3,2.62s-1.03,2.62-2.3,2.62Z"/>
        <path d="M43.19,0c-3.82,0-7.04,2.52-8.12,5.98l-32.58.08C1.11,6.07,0,7.19,0,8.57,0,9.95,1.12,11.06,2.5,11.06h0l32.55-.08c1.06,3.49,4.29,6.03,8.13,6.03,4.7,0,8.5-3.81,8.5-8.5S47.89,0,43.19,0ZM43.19,13.01c-1.57,0-2.96-.81-3.76-2.04-.47-.71-.74-1.55-.74-2.46s.29-1.81.78-2.54c.82-1.19,2.18-1.97,3.72-1.97s2.89.77,3.7,1.95c.51.73.8,1.61.8,2.56,0,.9-.26,1.74-.73,2.44-.8,1.24-2.19,2.06-3.77,2.06Z"/>
        <path class="cls-2" d="M47.69,8.51c0,.9-.26,1.74-.73,2.44-.8,1.24-2.19,2.06-3.77,2.06s-2.96-.81-3.76-2.04c-.47-.71-.74-1.55-.74-2.46s.29-1.81.78-2.54c.82-1.19,2.18-1.97,3.72-1.97s2.89.77,3.7,1.95c.51.73.8,1.61.8,2.56Z"/>
      </g>
    </g>
  </g>
</svg>