<?xml version="1.0" encoding="UTF-8"?>
<svg id="Capa_2" data-name="Capa 2" xmlns="http://www.w3.org/2000/svg" viewBox="0 0 57.88 68.3">
  <defs>
    <style>
      .cls-1 {
        stroke: #000;
        stroke-miterlimit: 10;
      }
    </style>
  </defs>
  <g id="Capa_1-2" data-name="Capa 1">
    <g>
      <g>
        <path d="M45.68,22.18c1.19-2.43,1.75-5.2,1.51-7.9-.55-6.15-4.8-11.75-10.66-13.81-2.89-1.01-6.25-.18-9.08.67-3.26.99-5.91,2.94-7.92,5.68-2.02,2.76-3.27,6.3-2.74,9.73.52,3.27,2.79,6.74,5.31,8.91.17.24.41.45.7.61.01.01.03.03.05.03,2.28,1.61,4.89,3.05,7.64,3.64,2.97.64,5.38-.1,8.09-1.31,2.92-1.32,5.66-3.3,7.1-6.24ZM37.4,23.65c-1.85.97-3.66,1.86-5.68,1.42-2.15-.46-4.1-1.53-5.91-2.77h0c-1.72-1.4-3.33-3.5-4.03-5.61-.66-2.04-.08-4.05.92-5.87,1.12-2.05,2.82-3.79,5.01-4.69.95-.39,1.98-.62,2.98-.84,1.1-.25,2.31-.61,3.45-.47,2.01.24,3.94,1.79,5.27,3.21,1.49,1.57,2.47,3.52,2.88,5.63.35,1.83.15,3.86-.54,5.59-.82,2.06-2.41,3.39-4.35,4.4Z"/>
        <path d="M27.58,34.58c-4.66.18-8.66,1.36-13.66,4.45-2.3,1.42-4.6,3.56-6.41,6.04-1.67,2.28-3.32,4.58-4.66,7.08-2.28,4.24-5.48,13.3.9,15.55.1.05.22.09.33.12.2.06.41.1.63.12,2.56.22,5.1,0,7.67,0,2.96,0,5.92.08,8.9.12,5.55.08,11.1.15,16.64.23.83.01,1.63-.4,2.06-1.12.25-.42.45-.97.45-1.63,0-.02,0-.04,0-.05-.02-1.24-1.1-2.21-2.34-2.23-5.58-.08-11.5-.15-17.06-.22-2.88-.04-5.76-.12-8.65-.12-2.35,0-4.67.18-7.01.04-1.03-.4,0-3.79.2-4.47.59-2.01,1.56-3.87,2.66-5.64,2.16-3.52,4.71-7.45,8.21-9.5,4.13-2.41,6.44-3.32,11.12-3.95.86-.12,2.45-.56,2.45-2.68s-2.45-2.14-2.45-2.14Z"/>
      </g>
      <path class="cls-1" d="M43.53,57.94c.05-3.73.07-5.46.06-9.2-3.81.07-5.77.07-9.57.31-1.96.12-1.95-2.92,0-3.04,3.8-.24,5.76-.24,9.56-.31-.02-3.59-.07-5.18-.14-8.78-.04-1.96,3-1.95,3.04,0,.07,3.58.12,5.16.14,8.75,3.76-.02,5.52.04,9.28.19,1.95.08,1.96,3.12,0,3.04-3.76-.15-5.51-.21-9.27-.19.01,3.74-.01,5.48-.06,9.23-.02,1.96-3.07,1.96-3.04,0Z"/>
    </g>
  </g>
</svg>