<?xml version="1.0" encoding="UTF-8"?>
<svg id="Capa_2" data-name="Capa 2" xmlns="http://www.w3.org/2000/svg" viewBox="0 0 67.43 66.82">
  <g id="Capa_1-2" data-name="Capa 1">
    <g>
      <path d="M28.06,2.73c.21,0,.39.17.39.39v24.94c0,.21-.17.39-.39.39H3.12c-.21,0-.39-.17-.39-.39V3.12c0-.21.17-.39.39-.39h24.94M28.06,0H3.12C1.4,0,0,1.4,0,3.12v24.94c0,1.72,1.4,3.12,3.12,3.12h24.94c1.72,0,3.12-1.4,3.12-3.12V3.12c0-1.72-1.4-3.12-3.12-3.12h0Z"/>
      <path d="M64.32,2.73c.21,0,.39.17.39.39v24.94c0,.21-.17.39-.39.39h-24.95c-.21,0-.39-.17-.39-.39V3.12c0-.21.17-.39.39-.39h24.95M64.32,0h-24.95c-1.72,0-3.12,1.4-3.12,3.12v24.94c0,1.72,1.4,3.12,3.12,3.12h24.95c1.72,0,3.12-1.4,3.12-3.12V3.12c0-1.72-1.4-3.12-3.12-3.12h0Z"/>
      <path d="M28.06,38.38c.21,0,.39.17.39.39v24.94c0,.21-.17.39-.39.39H3.12c-.21,0-.39-.17-.39-.39v-24.94c0-.21.17-.39.39-.39h24.94M28.06,35.64H3.12c-1.72,0-3.12,1.4-3.12,3.12v24.94c0,1.72,1.4,3.12,3.12,3.12h24.94c1.72,0,3.12-1.4,3.12-3.12v-24.94c0-1.72-1.4-3.12-3.12-3.12h0Z"/>
      <path d="M64.32,38.38c.21,0,.39.17.39.39v24.94c0,.21-.17.39-.39.39h-24.95c-.21,0-.39-.17-.39-.39v-24.94c0-.21.17-.39.39-.39h24.95M64.32,35.64h-24.95c-1.72,0-3.12,1.4-3.12,3.12v24.94c0,1.72,1.4,3.12,3.12,3.12h24.95c1.72,0,3.12-1.4,3.12-3.12v-24.94c0-1.72-1.4-3.12-3.12-3.12h0Z"/>
    </g>
  </g>
</svg>