<?xml version="1.0" encoding="UTF-8"?>
<svg id="Capa_2" data-name="Capa 2" xmlns="http://www.w3.org/2000/svg" viewBox="0 0 72.05 58.52">
  <defs>
    <style>
      .cls-1 {
        fill: #1d1d1b;
      }
    </style>
  </defs>
  <g id="Capa_1-2" data-name="Capa 1">
    <g>
      <path class="cls-1" d="M5.28,58.5c16.73-.15,33.45-.29,50.18-.44l6.49-.06c1.9-.02,3.85.1,5.74-.1,1.7-.18,3.25-.93,3.95-2.58s.32-3.62.23-5.35c-.42-8.01-.39-16.01-.43-24.02-.02-3.24-.09-6.49-.11-9.73-.01-1.73.25-3.66-.56-5.26-.72-1.43-2.14-2.31-3.73-2.42-4.17-.28-8.46-.02-12.64-.03s-8.32-.02-12.48-.04c-8.4-.03-16.81-.07-25.21-.1-2.08,0-4.16-.02-6.24-.02-1.94,0-3.93-.16-5.86.02-1.78.16-3.39,1-3.99,2.78s-.32,3.87-.36,5.67C.11,24.22.04,31.62.01,39.03,0,42.87,0,46.71,0,50.55c0,2.24.11,4.7,1.74,6.43.95,1.01,2.23,1.45,3.59,1.5l-.53-3.93-.05.02c-1.01.39-1.7,1.35-1.4,2.46.27.97,1.45,1.78,2.46,1.4l.05-.02c2.06-.79,1.83-3.83-.53-3.93-1.24-.05-1.3-1.71-1.33-2.81-.07-3.47,0-6.95,0-10.42.01-6.69.06-13.38.17-20.07.03-1.69.06-3.38.1-5.07.02-.8.03-1.59.05-2.39,0-.37-.02-.77.04-1.14.13-.27.1-.31-.07-.12l.33-.09c3.61-.1,7.23-.02,10.84,0,7.66.03,15.31.07,22.97.1s15.14.05,22.72.06c1.75,0,3.5-.02,5.24,0,1.4.02.93,1.48.93,2.57.01,3.04.07,6.09.1,9.13.07,7.11-.03,14.22.25,21.33.07,1.8.15,3.59.25,5.39.04.73.13,1.47.11,2.2-.02.66.02.68-.6.78-1.59.25-3.37.05-4.98.07l-5.74.05c-17.14.15-34.28.3-51.43.45-2.57.02-2.58,4.02,0,4Z"/>
      <path class="cls-1" d="M1.5,24.27c4.68,3.38,9.19,7.13,14.7,9.11,4.26,1.53,8.83,2.44,13.31,3.07,9.25,1.31,19.03,0,27.55-3.87,4.5-2.05,8.65-4.77,12.8-7.43,2.16-1.39.16-4.85-2.02-3.45-7.07,4.54-14.06,8.87-22.44,10.41-9,1.65-18.01.58-26.7-2.11-5.75-1.78-10.37-5.71-15.17-9.17-.88-.63-2.23-.15-2.74.72-.59,1.01-.16,2.1.72,2.74h0Z"/>
      <path class="cls-1" d="M53.28,9.48c0-2.7.57-6.92-2.32-8.48C49.06-.02,46.29.11,44.19.06c-6.59-.14-13.26-.03-19.85.13-2.02.05-3.94.83-4.65,2.88-.32.92-.26,1.9-.26,2.86,0,1.14,0,2.29,0,3.43,0,2.57,4,2.58,4,0,0-1,0-1.99,0-2.99,0-.4-.19-1.81.04-2.04.45-.44,1.98-.15,2.51-.16.99,0,1.97-.02,2.96-.02,3.36-.02,6.73-.03,10.09-.05,2.75-.02,5.49-.12,8.23.13.54.05.95.09,1.48.21.09.02.68.25.44.11-.41-.24-.32-.35-.14.13.52,1.41.25,3.27.25,4.79,0,2.57,4,2.58,4,0h0Z"/>
      <path class="cls-1" d="M38.55,19.08c-1.58-.88-3.62-.98-5.13.1-.78.56-1.33,1.26-1.69,2.15-.3.77-.32,1.66-.12,2.46.23.9.8,1.75,1.5,2.36.77.67,1.92,1,2.93,1,1.63-.01,3.28-.95,4.02-2.43.46-.92.6-1.89.39-2.89s-.84-1.89-1.6-2.51c-.32-.26-.64-.44-1.06-.44-.37,0-.81.16-1.06.44-.5.55-.65,1.59,0,2.12.24.2.46.41.65.65l-.23-.3c.16.22.3.44.41.69l-.15-.36c.09.23.16.46.19.71l-.05-.4c.03.23.02.46,0,.7l.05-.4c-.03.23-.1.45-.18.66l.15-.36c-.1.24-.24.47-.4.68l.23-.3c-.16.2-.33.37-.53.53l.3-.23c-.22.17-.45.3-.7.41l.36-.15c-.26.11-.53.18-.81.22l.4-.05c-.28.03-.55.03-.83,0l.4.05c-.3-.04-.59-.12-.87-.24l.36.15c-.18-.08-.36-.17-.53-.27l.3.23c-.21-.18-.4-.38-.58-.6l.23.3c-.17-.23-.32-.47-.43-.73l.15.36c-.09-.22-.16-.45-.19-.68l.05.4c-.03-.24-.03-.48,0-.72l-.05.4c.03-.23.1-.46.19-.68l-.15.36c.1-.23.23-.45.38-.65l-.23.3c.16-.2.34-.38.54-.54l-.3.23c.21-.16.43-.29.68-.39l-.36.15c.27-.11.54-.19.83-.22l-.4.05c.29-.03.57-.03.85,0l-.4-.05c.31.05.61.13.9.25l-.36-.15c.15.06.29.13.42.21.69.38,1.67.19,2.05-.54s.19-1.64-.54-2.05Z"/>
    </g>
  </g>
</svg>