<?xml version="1.0" encoding="UTF-8"?>
<svg id="Capa_2" data-name="Capa 2" xmlns="http://www.w3.org/2000/svg" viewBox="0 0 55.57 30.67">
  <g id="Capa_1-2" data-name="Capa 1">
    <g>
      <path d="M20.48,0C13.2.03,4.52,1.83,1.32,9.25c-2.99,6.94-.88,15.7,6.12,19.21,4.23,2.12,9.12,2.46,13.76,2.07,2.55-.21,2.57-4.21,0-4-5.68.47-13.45,0-16.24-5.95-1.25-2.67-1.21-6.06-.33-8.83s2.8-4.59,5.27-5.81c3.24-1.6,7.03-1.93,10.59-1.94C23.05,3.99,23.06,0,20.48,0h0Z"/>
      <path d="M35.08,30.67c7.28-.03,15.97-1.83,19.16-9.25,2.99-6.94.88-15.7-6.12-19.21C43.9.09,39.01-.24,34.37.14c-2.55.21-2.57,4.21,0,4,5.68-.47,13.45,0,16.24,5.95,1.25,2.67,1.21,6.06.33,8.83s-2.8,4.59-5.27,5.81c-3.24,1.6-7.03,1.93-10.59,1.94-2.57,0-2.58,4.01,0,4h0Z"/>
      <path d="M15.39,17.11c8.07.1,16.13.2,24.2.3,2.57.03,2.58-3.97,0-4-8.07-.1-16.13-.2-24.2-.3-2.57-.03-2.58,3.97,0,4h0Z"/>
    </g>
  </g>
</svg>