<?xml version="1.0" encoding="UTF-8"?>
<svg id="Capa_2" data-name="Capa 2" xmlns="http://www.w3.org/2000/svg" viewBox="0 0 57.66 77.21">
  <defs>
    <style>
      .cls-1 {
        stroke: #000;
        stroke-miterlimit: 10;
        stroke-width: .5px;
      }
    </style>
  </defs>
  <g id="Capa_1-2" data-name="Capa 1">
    <path d="M.14,9.98v32.08h3.5c-.04-9.38-.08-18.76-.12-28.13,0-1.33-.01-2.66-.02-3.99l-2.22,1.69.14.04c2.17.62,3.1-2.76.93-3.37l-.14-.04C1.12,7.94,0,8.81,0,9.94c.04,9.38.08,18.76.12,28.13,0,1.33.01,2.66.02,3.99,0,2.25,3.5,2.26,3.5,0V9.98c0-2.25-3.5-2.26-3.5,0Z"/>
    <g>
      <path d="M54.13,8.24v60.78l.87-1.51c-7.93,3.76-16.42,5.71-25.16,6.21-6.12.35-12.32-.63-18.35-1.63-3.01-.5-6.07-1.02-9-1.88l1.28,1.69c0-9-.08-18-.12-27-.03-7.49-.01-14.97-.01-22.46v-12.45l-2.22,1.69c6.87,2.05,13.8,3.91,20.94,4.7s14.61-.48,21.54-2.17c4.42-1.08,8.73-2.49,12.85-4.44,2.03-.96.26-3.98-1.77-3.02-6.78,3.21-14.39,5.02-21.81,5.89-3.24.38-6.5.65-9.75.35s-6.67-.91-9.94-1.65c-3.75-.85-7.45-1.93-11.14-3.03-1.09-.33-2.22.57-2.22,1.69v27.3c0,7.27.04,14.54.08,21.8.02,4.27.05,8.54.05,12.81,0,.78.55,1.47,1.28,1.69,6.03,1.78,12.5,2.55,18.73,3.24,7.41.82,14.77.35,22.06-1.26,4.99-1.1,9.8-2.84,14.42-5.02.54-.26.87-.94.87-1.51V8.24c0-2.25-3.5-2.26-3.5,0Z"/>
      <g>
        <path class="cls-1" d="M39.71,30.87c-.52-1.3-1.39-2.48-2.52-3.33-2.56-1.93-6.2-2.24-9.03-.69-1.39.76-2.24,2.34-2.9,3.73-.75,1.6-.92,3.3-.56,5.03.36,1.74,1.29,3.45,2.8,4.44,1.44.94,3.56,1.27,5.28,1.05.15.02.32,0,.48-.06,0,0,.02,0,.03,0,1.42-.32,2.87-.82,4.06-1.68,1.28-.92,1.83-2.11,2.3-3.57.51-1.58.7-3.32.06-4.9ZM37.4,34.58c-.27,1.05-.56,2.06-1.43,2.68-.93.67-2.01,1.05-3.12,1.32h0c-1.13.18-2.5.07-3.56-.4-1.01-.45-1.59-1.38-1.94-2.39-.4-1.15-.48-2.4-.06-3.56.18-.5.45-.98.71-1.44.29-.51.57-1.1,1.02-1.49.79-.69,2.06-.9,3.07-.91,1.12-.03,2.21.27,3.17.85.83.5,1.54,1.28,1.97,2.15.51,1.04.47,2.11.18,3.2Z"/>
        <path class="cls-1" d="M48.76,54.55c-.45-1.26-1.08-2.45-1.78-3.59-.67-1.09-1.35-2.21-2.16-3.19-1.64-1.99-4.08-2.82-6.54-3.3-4.96-.97-10.41-.53-14.74,2.24-1.3.83-2.2,1.89-3.03,3.17-.77,1.18-1.54,2.36-2.14,3.64-1.03,2.17-2.39,6.76.85,7.71.05.02.11.04.17.05.1.02.21.04.32.04,1.28.04,2.54-.13,3.81-.2,1.47-.08,2.95-.11,4.43-.17,2.92-.11,5.85-.22,8.77-.33,2.89-.11,5.8-.14,8.67-.52,1.32-.17,3.12-.22,3.76-1.61.54-1.17.02-2.8-.39-3.95ZM46.86,57.48s0-.06-.02-.15c-.06.02-.12.04-.14.05-.28.06-.57.1-.84.14-.64.1-1.29.18-1.94.24-2.52.24-5.06.28-7.59.37-2.88.11-5.76.22-8.64.33-1.43.05-2.87.09-4.3.16-1.17.06-2.32.21-3.48.2-.52-.17-.1-1.88-.01-2.23.24-1.01.68-1.96,1.18-2.87.98-1.81,2.07-3.81,3.84-4.93,3.58-2.28,8.09-2.69,12.21-1.99,1.9.32,4.04.76,5.45,2.17.77.77,1.33,1.8,1.92,2.71.59.92,1.16,1.86,1.59,2.86.23.52.43,1.06.57,1.62.02.09.14.85.2,1.18.06-.02.12-.03.14-.02.06.03-.09.18-.12.17Z"/>
        <path class="cls-1" d="M46.86,57.48s0-.06-.02-.15c.06-.02.12-.03.14-.02.06.03-.09.18-.12.17Z"/>
      </g>
      <path d="M41.58,1.71v10.23l1.28-1.69c-3.14.85-6.27,1.8-9.48,2.34s-6.4.65-9.59.38c-7.32-.62-14.42-2.59-21.44-4.68l1.28,1.69v-.05l-2.22,1.69c7.65,1.28,15.76.98,23.34-.62,6.9-1.46,13.16-4.69,19.45-7.77,2.02-.99.25-4.01-1.77-3.02-5.9,2.9-11.74,5.91-18.21,7.33-7.05,1.55-14.76,1.91-21.88.71-1.1-.19-2.22.46-2.22,1.69v.05c0,.78.55,1.47,1.28,1.69,7.33,2.18,14.73,4.15,22.37,4.8,6.91.59,13.4-1.06,20-2.84.74-.2,1.28-.92,1.28-1.69V1.71c0-2.25-3.5-2.26-3.5,0Z"/>
      <path d="M9.32,11.42c.13,2.01.02,4.05,0,6.06-.03,4.19-.08,8.39-.12,12.58-.1,10.17-.22,20.35-.21,30.52,0,3.91-.01,7.83.16,11.74.1,2.24,3.6,2.26,3.5,0-.35-8.22-.16-16.47-.11-24.69.07-9.61.19-19.22.27-28.83.02-2.44.15-4.93,0-7.37-.14-2.24-3.64-2.25-3.5,0h0Z"/>
    </g>
  </g>
</svg>