<?xml version="1.0" encoding="UTF-8"?>
<svg id="Capa_2" data-name="Capa 2" xmlns="http://www.w3.org/2000/svg" viewBox="0 0 64.67 44.44">
  <g id="Capa_1-2" data-name="Capa 1">
    <path d="M2.9,25.44c19.62-.46,39.25-.55,58.87-.25,3.86.06,3.86-5.94,0-6-19.63-.29-39.25-.21-58.87.25-3.85.09-3.87,6.09,0,6h0Z"/>
    <path d="M2.9,44.44c19.62-.46,39.25-.55,58.87-.25,3.86.06,3.86-5.94,0-6-19.63-.29-39.25-.21-58.87.25-3.85.09-3.87,6.09,0,6h0Z"/>
    <path d="M61.77,0C42.15.46,22.52.55,2.9.25c-3.86-.06-3.86,5.94,0,6,19.63.29,39.25.21,58.87-.25,3.85-.09,3.87-6.09,0-6h0Z"/>
  </g>
</svg>