<?xml version="1.0" encoding="UTF-8"?>
<svg id="Capa_2" data-name="Capa 2" xmlns="http://www.w3.org/2000/svg" viewBox="0 0 51.97 51.97">
  <g id="Capa_1-2" data-name="Capa 1">
    <path d="M51.97,25.92c.01,1.66-1.33,3.01-2.99,3.01l-19.98.05.05,19.99c0,1.65-1.34,3-2.99,3h-.01c-1.66,0-3-1.33-3-2.99l-.05-19.98-19.99.05h0c-1.65,0-2.99-1.34-3-3,0-1.65,1.34-3,3-3l19.98-.05-.05-19.99c0-1.66,1.34-3,2.99-3.01h.01c1.65,0,3,1.34,3,3l.05,19.98,19.99-.05c.83,0,1.58.33,2.12.88.54.54.88,1.29.88,2.11Z"/>
  </g>
</svg>