<?xml version="1.0" encoding="UTF-8"?>
<svg id="Capa_2" data-name="Capa 2" xmlns="http://www.w3.org/2000/svg" viewBox="0 0 68.27 67.87">
  <g id="Capa_1-2" data-name="Capa 1">
    <g>
      <path d="M68.21,45.74c-.03-2.91-.06-5.84-.05-9.02,0-.07,0-.15-.01-.23-.17-1.99-1.61-3.49-3.56-3.71-.09-.01-.18-.02-.27-.02l-12.93.02c.22-.51.34-1.08.36-1.71.16-6.86.1-12.32.04-18.1-.02-2.91-.05-5.83-.05-9.02,0-.07,0-.15-.01-.22-.17-2-1.6-3.49-3.57-3.72-.08-.01-.17-.01-.26-.01l-27.7.04c-.24,0-.49.04-.72.12-1.53.5-2.53,1.63-2.81,3.18-.02.13-.03.26-.03.4v27.52c0,.09,0,.18.01.27.05.45.17.87.35,1.26l-13.43.02c-.25,0-.49.04-.73.11-1.52.5-2.52,1.64-2.8,3.19-.02.13-.03.26-.03.39v27.53c-.01.09,0,.18.01.27.22,1.91,1.65,3.34,3.56,3.56.09.01.18.01.26.01h27.4c.12,0,.23-.01.34-.02,1.06-.17,1.92-.6,2.52-1.27.63.7,1.51,1.16,2.53,1.28.09.01.17.01.27.01h27.39c.12,0,.23-.01.34-.02,2.16-.33,3.48-1.83,3.53-4.01.16-6.86.11-12.32.05-18.1ZM32.22,40.69v23.74s-.01.56-1.01.56H3.77c-.14,0-.27-.07-.42-.19-.21-.17-.34-.47-.34-.79l-.12-27.37c-.02-.45.45-.95.86-.99l11.84.03.82-.02h15.26c.19,0,.55,0,.55.55l.02,4.48h-.02ZM20.4,32.22c-.14-.01-.27-.07-.42-.19-.21-.17-.34-.46-.34-.79l-.12-27.37c-.01-.44.45-.94.86-.99h27.92c.19.01.55.01.55.56l.02,4.49h-.02s0,23.73,0,23.73c0,.02-.01.56-1,.56h-27.45ZM65.27,40.69v23.74s-.01.56-1,.56h-27.45c-.14,0-.28-.07-.42-.19-.21-.17-.34-.47-.34-.79l-.12-27.37c-.02-.45.45-.95.86-.99l11.84.03.82-.02h15.26c.19,0,.55,0,.55.55l.02,4.48h-.02ZM65.87,41.35h-.06s.06-.01.06-.01h0Z"/>
      <path d="M59.74,56.15c-.39-.63-.77-1.26-1.15-1.9-.79-1.34-1.56-2.7-2.32-4.06-1.52-2.71-3.03-5.43-4.63-8.1-.41-.69-1.52-.75-1.93,0-2.75,5.18-5.74,10.22-8.64,15.31-.2.36-.19.7-.05.98,0,.01.01.02.01.03.14.38.47.68,1,.68,3.27-.01,6.53,0,9.8,0,1.68.01,3.37.01,5.06.01,1.12,0,3,.3,3.45-1.1.23-.73-.24-1.27-.6-1.85ZM50.47,56.86c-2.17,0-4.33,0-6.51,0,2.27-3.96,4.58-7.9,6.76-11.91,2.31,3.96,4.45,8.01,6.84,11.92h-7.09Z"/>
      <path d="M34.24,7.42c-5.58,0-10.13,4.54-10.13,10.13s4.55,10.13,10.13,10.13,10.13-4.54,10.13-10.13-4.54-10.13-10.13-10.13ZM34.24,25.68c-4.48,0-8.13-3.65-8.13-8.13s3.65-8.13,8.13-8.13,8.13,3.65,8.13,8.13-3.64,8.13-8.13,8.13Z"/>
      <path d="M27.29,48.3l-7.67-7.66c-1.11-1.11-2.91-1.11-4.02,0l-7.67,7.66c-1.11,1.11-1.11,2.92,0,4.03l7.67,7.67c.55.55,1.28.83,2.01.83s1.46-.28,2.01-.83l7.67-7.67c.54-.54.83-1.25.83-2.01s-.29-1.48-.83-2.02ZM25.94,50.98l-7.67,7.66c-.36.36-.96.36-1.32,0l-7.66-7.66c-.37-.37-.37-.96,0-1.32l7.66-7.67c.18-.18.42-.27.66-.27s.48.09.66.27l7.67,7.67c.17.18.27.41.27.66s-.1.48-.27.66Z"/>
    </g>
  </g>
</svg>