<?xml version="1.0" encoding="UTF-8"?>
<svg id="Capa_2" data-name="Capa 2" xmlns="http://www.w3.org/2000/svg" viewBox="0 0 64.4 70.04">
  <g id="Capa_1-2" data-name="Capa 1">
    <g>
      <path d="M47.8,10.8c-.91-2.66-2.53-5.1-4.69-6.91C38.2-.22,30.96-1.21,25.15,1.58c-2.86,1.38-4.72,4.45-6.17,7.16-1.66,3.12-2.18,6.49-1.64,9.98.54,3.51,2.22,7.02,5.13,9.15,2.78,2.02,6.99,2.9,10.43,2.64.3.05.63.03.96-.07.02,0,.04,0,.06-.01,2.86-.49,5.82-1.35,8.28-2.94,2.65-1.71,3.87-4.02,4.97-6.9,1.18-3.11,1.73-6.57.63-9.79ZM42.8,17.96c-.65,2.07-1.32,4.05-3.13,5.21-1.92,1.24-4.13,1.89-6.37,2.31h-.01c-2.28.24-5-.12-7.07-1.16-1.98-1.01-3.03-2.91-3.63-4.98-.68-2.33-.71-4.85.24-7.12.41-.98,1-1.91,1.57-2.81.63-.99,1.25-2.14,2.19-2.88,1.65-1.3,4.2-1.58,6.22-1.51,2.24.06,4.39.77,6.24,2.02,1.6,1.09,2.94,2.72,3.71,4.5.91,2.12.72,4.26.04,6.42Z"/>
      <path d="M63.44,59.02c-.76-2.56-1.91-5.01-3.18-7.36-1.22-2.24-2.46-4.55-3.99-6.6-3.08-4.15-7.86-6.05-12.73-7.27-9.81-2.45-20.73-2.12-29.68,2.96-2.68,1.52-4.58,3.55-6.38,6.02-1.66,2.27-3.31,4.56-4.64,7.05-2.27,4.22-5.46,13.25.9,15.49.1.05.22.09.33.12.2.06.41.1.63.12,2.55.22,5.08,0,7.64,0,2.95,0,5.9.08,8.86.12,5.85.08,11.7.16,17.55.24,5.78.08,11.6.32,17.38-.15,2.65-.21,6.25-.11,7.68-2.82,1.2-2.29.32-5.59-.37-7.92ZM59.35,64.68s-.01-.13-.03-.3c-.12.03-.24.07-.28.08-.56.09-1.14.14-1.7.19-1.29.13-2.59.22-3.89.28-5.06.22-10.14.04-15.2-.03-5.76-.08-11.53-.16-17.3-.23-2.87-.04-5.74-.12-8.61-.12-2.34,0-4.65.18-6.98.04-1.03-.4,0-3.77.2-4.45.59-2,1.55-3.85,2.65-5.62,2.15-3.51,4.52-7.39,8.18-9.46,7.39-4.19,16.44-4.55,24.59-2.73,3.76.83,7.99,1.94,10.66,4.9,1.46,1.62,2.48,3.73,3.55,5.61,1.08,1.9,2.13,3.83,2.88,5.88.4,1.07.74,2.17.98,3.29.03.18.2,1.71.27,2.37.13-.03.25-.05.29-.03.12.06-.2.35-.26.33Z"/>
      <path d="M59.35,64.68s-.01-.13-.03-.3c.13-.03.25-.05.29-.03.12.06-.2.35-.26.33Z"/>
    </g>
  </g>
</svg>