<?xml version="1.0" encoding="UTF-8"?>
<svg id="Capa_2" data-name="Capa 2" xmlns="http://www.w3.org/2000/svg" viewBox="0 0 57.98 68.3">
  <defs>
    <style>
      .cls-1 {
        stroke: #000;
        stroke-miterlimit: 10;
        stroke-width: .5px;
      }
    </style>
  </defs>
  <g id="Capa_1-2" data-name="Capa 1">
    <g>
      <path class="cls-1" d="M57.66,49.98c-.12-3.54-.18-7.1-.36-10.64-.04-.8-.1-1.61-.14-2.42-.04-.78,0-1.63-.24-2.38-.51-1.5-1.75-1.98-3.21-2.07-3.36-.21-6.74-.2-10.11-.01-1.69.1-3.45.16-5.12.48-1.37.27-1.91,1.24-2.1,2.52-.2,1.28-.18,2.59-.21,3.88-.03,1.58-.05,3.18-.05,4.77,0,3.17.05,6.35.15,9.52.03.92-.06,1.94.16,2.84.19.79.83,1.59,1.63,1.58,1.29-.02,2.9-.99,3.32-1.22.63-.35,1.27-.7,1.91-1.05.47-.27.95-.54,1.43-.81.62-.35,1.36-.89,1.95-1.14.62-.2,1.2.43,1.67.76.69.49,1.4.94,2.13,1.35,1.4.8,2.88,1.52,4.4,2.04.74.25,1.52.23,2.12-.32.66-.61.75-1.4.74-2.24-.02-1.81-.01-3.62-.07-5.43ZM38.58,56.04s.03-.01.04-.02c0,0-.01.01-.04.02ZM55.63,56.06s-.02,0-.03.03c0-.02.01-.03,0-.04-.02-.01-.05-.03-.08-.05-.29-.17-.68-.25-1-.39-1.48-.62-2.91-1.36-4.25-2.24-1.27-.81-2.41-1.99-3.99-1.63-.08.02-.17.04-.25.07-.06.03-.13.05-.19.09-1.01.43-1.97,1.12-2.92,1.66-.57.33-1.14.64-1.71.96-.54.31-1.09.6-1.63.9-.16.09-1.03.63-1.3.37-.12-.11-.12-.44-.14-1.14-.08-3.17.03-12.16.15-16.88.02-.78-.08-1.98.31-2.7.01-.01.02-.02.03-.02.01-.01.02-.02.02-.01.22-.11.57-.11.8-.14.78-.09,1.56-.16,2.34-.22,3.09-.25,6.19-.32,9.29-.23.7.02,1.4.06,2.1.09.39.02.97-.03,1.3.13.47.22.5.78.51,1.23.04.77.09,1.55.13,2.32.18,3.12.21,6.25.34,9.38.07,1.78.14,3.56.16,5.34.01.93.05,1.87.01,2.79,0,.13,0,.22-.03.34,0,0,.01.01.02.02.06-.03.19.1,0,0Z"/>
      <path d="M45.68,22.18c1.19-2.43,1.75-5.2,1.51-7.9-.55-6.15-4.8-11.75-10.66-13.81-2.89-1.01-6.25-.18-9.08.67-3.26.99-5.91,2.94-7.92,5.68-2.02,2.76-3.27,6.3-2.74,9.73.52,3.27,2.79,6.74,5.31,8.91.17.24.41.45.7.61.01.01.03.03.05.03,2.28,1.61,4.89,3.05,7.64,3.64,2.97.64,5.38-.1,8.09-1.31,2.92-1.32,5.66-3.3,7.1-6.24ZM37.4,23.65c-1.85.97-3.66,1.86-5.68,1.42-2.15-.46-4.1-1.53-5.91-2.77h0c-1.72-1.4-3.33-3.5-4.03-5.61-.66-2.04-.08-4.05.92-5.87,1.12-2.05,2.82-3.79,5.01-4.69.95-.39,1.98-.62,2.98-.84,1.1-.25,2.31-.61,3.45-.47,2.01.24,3.94,1.79,5.27,3.21,1.49,1.57,2.47,3.52,2.88,5.63.35,1.83.15,3.86-.54,5.59-.82,2.06-2.41,3.39-4.35,4.4Z"/>
      <path d="M27.58,34.58c-4.66.18-8.66,1.36-13.66,4.45-2.3,1.42-4.6,3.56-6.41,6.04-1.67,2.28-3.32,4.58-4.66,7.08-2.28,4.24-5.48,13.3.9,15.55.1.05.22.09.33.12.2.06.41.1.63.12,2.56.22,5.1,0,7.67,0,2.96,0,5.92.08,8.9.12,5.55.08,11.1.15,16.64.23.83.01,1.63-.4,2.06-1.12.25-.42.45-.97.45-1.63,0-.02,0-.04,0-.05-.02-1.24-1.1-2.21-2.34-2.23-5.58-.08-11.5-.15-17.06-.22-2.88-.04-5.76-.12-8.65-.12-2.35,0-4.67.18-7.01.04-1.03-.4,0-3.79.2-4.47.59-2.01,1.56-3.87,2.66-5.64,2.16-3.52,4.71-7.45,8.21-9.5,4.13-2.41,6.44-3.32,11.12-3.95.86-.12,2.45-.56,2.45-2.68s-2.45-2.14-2.45-2.14Z"/>
    </g>
  </g>
</svg>