<?xml version="1.0" encoding="UTF-8"?>
<svg id="Capa_2" data-name="Capa 2" xmlns="http://www.w3.org/2000/svg" viewBox="0 0 50.64 58.86">
  <g id="Capa_1-2" data-name="Capa 1">
    <g>
      <path d="M50.3,18.73c-.62-1.06-1.76-1.14-2.85-1.2-2.34-.13-4.7-.1-7.05-.08-1.08,0-2.14.02-3.22.05-2.81.09-2.82,4.46,0,4.37,2.12-.07,4.24-.07,6.36-.06.89,0,1.78.02,2.67.04-.03,9.95-.38,19.9-.6,29.85-.02.91-.04,1.82-.08,2.73-12.92.15-25.85.09-38.77-.12-.8-.02-1.59-.03-2.39-.04,0-.8,0-1.63,0-2.44.03-2.57.06-5.14.1-7.72.08-6.62-.37-13.25.02-19.86.03-.52.07-1.05.11-1.57,0-.12.02-.24.03-.37.17-.03.36-.06.5-.07.52-.05,1.03-.09,1.54-.12,2.11-.13,4.22-.17,6.33-.04,2.81.16,2.8-4.21,0-4.37-1.85-.1-3.7-.1-5.55,0-1.73.09-4.13-.07-5.61.93-1.76,1.17-1.59,3.56-1.7,5.43-.11,1.84-.16,3.7-.16,5.55,0,6.16.16,12.31.07,18.46-.03,2.27-.08,4.55-.05,6.82.03,1.76.28,3.49,2.4,3.67,2.51.23,5.08.14,7.6.17,10.24.12,20.47.16,30.71.11,2.17,0,4.34.02,6.5-.04,2.69-.09,2.61-2.29,2.68-4.31.14-4.2.17-8.39.27-12.59.15-5.87.37-11.75.41-17.62,0-.86,0-1.72,0-2.58,0-.94.19-2.12-.31-2.97ZM47.69,21.92h.04c.1,0,.23.03.33.03-.18,0-.28,0-.38-.03Z"/>
      <path d="M33.92,13.07c-1.1.64-2.28.16-2.99-.79-1.2-1.6-2.46-3.16-3.78-4.68-.17,8.99-.16,17.99-.16,26.98,0,2.88-4.48,2.88-4.48,0,0-8.94,0-17.88.15-26.82-1.22,1.43-2.39,2.92-3.53,4.42-.72.94-1.87,1.44-2.99.79-.94-.55-1.49-2.05-.79-2.99,2.48-3.28,5.01-6.51,8.02-9.31.02-.03.04-.04.06-.06.09-.08.17-.15.26-.21.05-.03.11-.08.17-.1.41-.23.89-.33,1.36-.3.46.05.91.25,1.28.61.19.18.38.37.56.55,2.8,2.75,5.27,5.76,7.62,8.91.71.94.15,2.45-.79,2.99Z"/>
    </g>
  </g>
</svg>