<?xml version="1.0" encoding="UTF-8"?>
<svg id="Capa_2" data-name="Capa 2" xmlns="http://www.w3.org/2000/svg" viewBox="0 0 57.04 66.23">
  <g id="Capa_1-2" data-name="Capa 1">
    <g>
      <path d="M11.91,17.58v45.65H3V17.58h8.91M12.08,14.58H2.83c-1.57,0-2.83,1.27-2.83,2.83v45.98c0,1.57,1.27,2.83,2.83,2.83h9.24c1.57,0,2.83-1.27,2.83-2.83V17.42c0-1.57-1.27-2.83-2.83-2.83h0Z"/>
      <path d="M32.98,3v60.23h-8.91V3h8.91M33.14,0h-9.24c-1.57,0-2.83,1.27-2.83,2.83v60.56c0,1.57,1.27,2.83,2.83,2.83h9.24c1.57,0,2.83-1.27,2.83-2.83V2.83c0-1.57-1.27-2.83-2.83-2.83h0Z"/>
      <path d="M54.04,39.75v23.48h-8.91v-23.48h8.91M54.21,36.75h-9.24c-1.57,0-2.83,1.27-2.83,2.83v23.81c0,1.57,1.27,2.83,2.83,2.83h9.24c1.57,0,2.83-1.27,2.83-2.83v-23.81c0-1.57-1.27-2.83-2.83-2.83h0Z"/>
    </g>
  </g>
</svg>