<?xml version="1.0" encoding="UTF-8"?>
<svg id="Capa_2" data-name="Capa 2" xmlns="http://www.w3.org/2000/svg" viewBox="0 0 70.78 47.59">
  <defs>
    <style>
      .cls-1 {
        stroke: #000;
        stroke-miterlimit: 10;
        stroke-width: .25px;
      }
    </style>
  </defs>
  <g id="Capa_1-2" data-name="Capa 1">
    <path class="cls-1" d="M69.86,13.91L35.41.21c-.3-.12-.64-.12-.94.01L.9,14.14c-.47.19-.77.65-.77,1.16s.31.96.78,1.15l15.07,6.07-.23,15.02c-2.19.54-3.82,2.52-3.82,4.87,0,2.78,2.27,5.05,5.05,5.05s5.03-2.27,5.03-5.05c0-2.31-1.56-4.26-3.68-4.84l.09-2.46c.36.23.73.43,1.07.64,4.01,2.4,8.57,3.89,13.24,4.2,4.82.32,9.96-.33,14.44-2.18,2.09-.86,4.27-1.99,5.84-3.64.71-.74.65-1.6.67-2.56.07-2.92.12-5.84.12-8.76l16.08-6.58c.48-.2.78-.66.78-1.17s-.31-.96-.79-1.15ZM19.78,42.41c0,1.55-1.25,2.81-2.8,2.81s-2.81-1.26-2.81-2.81,1.26-2.8,2.81-2.8,2.8,1.25,2.8,2.8ZM50.67,32.25c-.46.47-.87.72-1.47,1.12-2.08,1.36-4.42,2.23-6.82,2.8-7.25,1.72-14.87.88-21.3-2.95-.48-.28-.96-.58-1.42-.9-.18-.12-.37-.23-.53-.37h-.01c-.02-.26.01-.57,0-.8-.09-2.46-.14-4.92-.05-7.38l15.84,6.38c.15.06.31.09.47.09s.32-.03.47-.09l14.94-6.11c0,2.74-.05,5.47-.12,8.21ZM35.39,27.64l-15.11-6.09,13.5-5.88c.65-.28.95-1.04.67-1.7-.29-.65-1.05-.95-1.7-.66l-15.83,6.89-12.24-4.93L34.95,2.72l31.11,12.37-30.68,12.55Z"/>
  </g>
</svg>